<mxfile host="65bd71144e">
    <diagram id="tI5v8beypsRgPUiQuChN" name="Page-1">
        <mxGraphModel dx="2757" dy="651" grid="1" gridSize="10" guides="1" tooltips="1" connect="1" arrows="1" fold="1" page="1" pageScale="1" pageWidth="1600" pageHeight="900" math="0" shadow="0">
            <root>
                <mxCell id="0"/>
                <mxCell id="1" parent="0"/>
                <mxCell id="2" value="Initial Table" style="shape=table;startSize=30;container=1;collapsible=1;childLayout=tableLayout;fixedRows=1;rowLines=0;fontStyle=1;align=center;resizeLast=1;html=1;" parent="1" vertex="1">
                    <mxGeometry x="40" y="40" width="180" height="300" as="geometry"/>
                </mxCell>
                <mxCell id="3" value="" style="shape=tableRow;horizontal=0;startSize=0;swimlaneHead=0;swimlaneBody=0;fillColor=none;collapsible=0;dropTarget=0;points=[[0,0.5],[1,0.5]];portConstraint=eastwest;top=0;left=0;right=0;bottom=1;" parent="2" vertex="1">
                    <mxGeometry y="30" width="180" height="30" as="geometry"/>
                </mxCell>
                <mxCell id="4" value="PK" style="shape=partialRectangle;connectable=0;fillColor=none;top=0;left=0;bottom=0;right=0;fontStyle=1;overflow=hidden;whiteSpace=wrap;html=1;" parent="3" vertex="1">
                    <mxGeometry width="30" height="30" as="geometry">
                        <mxRectangle width="30" height="30" as="alternateBounds"/>
                    </mxGeometry>
                </mxCell>
                <mxCell id="5" value="Vorgangs_ID" style="shape=partialRectangle;connectable=0;fillColor=none;top=0;left=0;bottom=0;right=0;align=left;spacingLeft=6;fontStyle=5;overflow=hidden;whiteSpace=wrap;html=1;" parent="3" vertex="1">
                    <mxGeometry x="30" width="150" height="30" as="geometry">
                        <mxRectangle width="150" height="30" as="alternateBounds"/>
                    </mxGeometry>
                </mxCell>
                <mxCell id="6" value="" style="shape=tableRow;horizontal=0;startSize=0;swimlaneHead=0;swimlaneBody=0;fillColor=none;collapsible=0;dropTarget=0;points=[[0,0.5],[1,0.5]];portConstraint=eastwest;top=0;left=0;right=0;bottom=0;" parent="2" vertex="1">
                    <mxGeometry y="60" width="180" height="30" as="geometry"/>
                </mxCell>
                <mxCell id="7" value="" style="shape=partialRectangle;connectable=0;fillColor=none;top=0;left=0;bottom=0;right=0;editable=1;overflow=hidden;whiteSpace=wrap;html=1;" parent="6" vertex="1">
                    <mxGeometry width="30" height="30" as="geometry">
                        <mxRectangle width="30" height="30" as="alternateBounds"/>
                    </mxGeometry>
                </mxCell>
                <mxCell id="8" value="Delinguent_ID" style="shape=partialRectangle;connectable=0;fillColor=none;top=0;left=0;bottom=0;right=0;align=left;spacingLeft=6;overflow=hidden;whiteSpace=wrap;html=1;" parent="6" vertex="1">
                    <mxGeometry x="30" width="150" height="30" as="geometry">
                        <mxRectangle width="150" height="30" as="alternateBounds"/>
                    </mxGeometry>
                </mxCell>
                <mxCell id="9" value="" style="shape=tableRow;horizontal=0;startSize=0;swimlaneHead=0;swimlaneBody=0;fillColor=none;collapsible=0;dropTarget=0;points=[[0,0.5],[1,0.5]];portConstraint=eastwest;top=0;left=0;right=0;bottom=0;" parent="2" vertex="1">
                    <mxGeometry y="90" width="180" height="30" as="geometry"/>
                </mxCell>
                <mxCell id="10" value="" style="shape=partialRectangle;connectable=0;fillColor=none;top=0;left=0;bottom=0;right=0;editable=1;overflow=hidden;whiteSpace=wrap;html=1;" parent="9" vertex="1">
                    <mxGeometry width="30" height="30" as="geometry">
                        <mxRectangle width="30" height="30" as="alternateBounds"/>
                    </mxGeometry>
                </mxCell>
                <mxCell id="11" value="Anrede" style="shape=partialRectangle;connectable=0;fillColor=none;top=0;left=0;bottom=0;right=0;align=left;spacingLeft=6;overflow=hidden;whiteSpace=wrap;html=1;" parent="9" vertex="1">
                    <mxGeometry x="30" width="150" height="30" as="geometry">
                        <mxRectangle width="150" height="30" as="alternateBounds"/>
                    </mxGeometry>
                </mxCell>
                <mxCell id="12" value="" style="shape=tableRow;horizontal=0;startSize=0;swimlaneHead=0;swimlaneBody=0;fillColor=none;collapsible=0;dropTarget=0;points=[[0,0.5],[1,0.5]];portConstraint=eastwest;top=0;left=0;right=0;bottom=0;" parent="2" vertex="1">
                    <mxGeometry y="120" width="180" height="30" as="geometry"/>
                </mxCell>
                <mxCell id="13" value="" style="shape=partialRectangle;connectable=0;fillColor=none;top=0;left=0;bottom=0;right=0;editable=1;overflow=hidden;whiteSpace=wrap;html=1;" parent="12" vertex="1">
                    <mxGeometry width="30" height="30" as="geometry">
                        <mxRectangle width="30" height="30" as="alternateBounds"/>
                    </mxGeometry>
                </mxCell>
                <mxCell id="14" value="Delinquent" style="shape=partialRectangle;connectable=0;fillColor=none;top=0;left=0;bottom=0;right=0;align=left;spacingLeft=6;overflow=hidden;whiteSpace=wrap;html=1;" parent="12" vertex="1">
                    <mxGeometry x="30" width="150" height="30" as="geometry">
                        <mxRectangle width="150" height="30" as="alternateBounds"/>
                    </mxGeometry>
                </mxCell>
                <mxCell id="20" value="" style="shape=tableRow;horizontal=0;startSize=0;swimlaneHead=0;swimlaneBody=0;fillColor=none;collapsible=0;dropTarget=0;points=[[0,0.5],[1,0.5]];portConstraint=eastwest;top=0;left=0;right=0;bottom=0;" parent="2" vertex="1">
                    <mxGeometry y="150" width="180" height="30" as="geometry"/>
                </mxCell>
                <mxCell id="21" value="" style="shape=partialRectangle;connectable=0;fillColor=none;top=0;left=0;bottom=0;right=0;editable=1;overflow=hidden;whiteSpace=wrap;html=1;" parent="20" vertex="1">
                    <mxGeometry width="30" height="30" as="geometry">
                        <mxRectangle width="30" height="30" as="alternateBounds"/>
                    </mxGeometry>
                </mxCell>
                <mxCell id="22" value="Geburtsdatum" style="shape=partialRectangle;connectable=0;fillColor=none;top=0;left=0;bottom=0;right=0;align=left;spacingLeft=6;overflow=hidden;whiteSpace=wrap;html=1;" parent="20" vertex="1">
                    <mxGeometry x="30" width="150" height="30" as="geometry">
                        <mxRectangle width="150" height="30" as="alternateBounds"/>
                    </mxGeometry>
                </mxCell>
                <mxCell id="23" value="" style="shape=tableRow;horizontal=0;startSize=0;swimlaneHead=0;swimlaneBody=0;fillColor=none;collapsible=0;dropTarget=0;points=[[0,0.5],[1,0.5]];portConstraint=eastwest;top=0;left=0;right=0;bottom=0;" parent="2" vertex="1">
                    <mxGeometry y="180" width="180" height="30" as="geometry"/>
                </mxCell>
                <mxCell id="24" value="" style="shape=partialRectangle;connectable=0;fillColor=none;top=0;left=0;bottom=0;right=0;editable=1;overflow=hidden;whiteSpace=wrap;html=1;" parent="23" vertex="1">
                    <mxGeometry width="30" height="30" as="geometry">
                        <mxRectangle width="30" height="30" as="alternateBounds"/>
                    </mxGeometry>
                </mxCell>
                <mxCell id="25" value="Delikt" style="shape=partialRectangle;connectable=0;fillColor=none;top=0;left=0;bottom=0;right=0;align=left;spacingLeft=6;overflow=hidden;whiteSpace=wrap;html=1;" parent="23" vertex="1">
                    <mxGeometry x="30" width="150" height="30" as="geometry">
                        <mxRectangle width="150" height="30" as="alternateBounds"/>
                    </mxGeometry>
                </mxCell>
                <mxCell id="26" value="" style="shape=tableRow;horizontal=0;startSize=0;swimlaneHead=0;swimlaneBody=0;fillColor=none;collapsible=0;dropTarget=0;points=[[0,0.5],[1,0.5]];portConstraint=eastwest;top=0;left=0;right=0;bottom=0;" parent="2" vertex="1">
                    <mxGeometry y="210" width="180" height="30" as="geometry"/>
                </mxCell>
                <mxCell id="27" value="" style="shape=partialRectangle;connectable=0;fillColor=none;top=0;left=0;bottom=0;right=0;editable=1;overflow=hidden;whiteSpace=wrap;html=1;" parent="26" vertex="1">
                    <mxGeometry width="30" height="30" as="geometry">
                        <mxRectangle width="30" height="30" as="alternateBounds"/>
                    </mxGeometry>
                </mxCell>
                <mxCell id="28" value="Datum" style="shape=partialRectangle;connectable=0;fillColor=none;top=0;left=0;bottom=0;right=0;align=left;spacingLeft=6;overflow=hidden;whiteSpace=wrap;html=1;" parent="26" vertex="1">
                    <mxGeometry x="30" width="150" height="30" as="geometry">
                        <mxRectangle width="150" height="30" as="alternateBounds"/>
                    </mxGeometry>
                </mxCell>
                <mxCell id="29" value="" style="shape=tableRow;horizontal=0;startSize=0;swimlaneHead=0;swimlaneBody=0;fillColor=none;collapsible=0;dropTarget=0;points=[[0,0.5],[1,0.5]];portConstraint=eastwest;top=0;left=0;right=0;bottom=0;" parent="2" vertex="1">
                    <mxGeometry y="240" width="180" height="30" as="geometry"/>
                </mxCell>
                <mxCell id="30" value="" style="shape=partialRectangle;connectable=0;fillColor=none;top=0;left=0;bottom=0;right=0;editable=1;overflow=hidden;whiteSpace=wrap;html=1;" parent="29" vertex="1">
                    <mxGeometry width="30" height="30" as="geometry">
                        <mxRectangle width="30" height="30" as="alternateBounds"/>
                    </mxGeometry>
                </mxCell>
                <mxCell id="31" value="Dokument" style="shape=partialRectangle;connectable=0;fillColor=none;top=0;left=0;bottom=0;right=0;align=left;spacingLeft=6;overflow=hidden;whiteSpace=wrap;html=1;" parent="29" vertex="1">
                    <mxGeometry x="30" width="150" height="30" as="geometry">
                        <mxRectangle width="150" height="30" as="alternateBounds"/>
                    </mxGeometry>
                </mxCell>
                <mxCell id="32" value="" style="shape=tableRow;horizontal=0;startSize=0;swimlaneHead=0;swimlaneBody=0;fillColor=none;collapsible=0;dropTarget=0;points=[[0,0.5],[1,0.5]];portConstraint=eastwest;top=0;left=0;right=0;bottom=0;" parent="2" vertex="1">
                    <mxGeometry y="270" width="180" height="30" as="geometry"/>
                </mxCell>
                <mxCell id="33" value="" style="shape=partialRectangle;connectable=0;fillColor=none;top=0;left=0;bottom=0;right=0;editable=1;overflow=hidden;whiteSpace=wrap;html=1;" parent="32" vertex="1">
                    <mxGeometry width="30" height="30" as="geometry">
                        <mxRectangle width="30" height="30" as="alternateBounds"/>
                    </mxGeometry>
                </mxCell>
                <mxCell id="34" value="Bearbeiter" style="shape=partialRectangle;connectable=0;fillColor=none;top=0;left=0;bottom=0;right=0;align=left;spacingLeft=6;overflow=hidden;whiteSpace=wrap;html=1;" parent="32" vertex="1">
                    <mxGeometry x="30" width="150" height="30" as="geometry">
                        <mxRectangle width="150" height="30" as="alternateBounds"/>
                    </mxGeometry>
                </mxCell>
                <mxCell id="19" value="1.NF - Nur noch atomare Werte und keine Wiederhohlungsgruppen" style="text;html=1;align=left;verticalAlign=middle;whiteSpace=wrap;rounded=0;" parent="1" vertex="1">
                    <mxGeometry x="40" y="360" width="390" height="30" as="geometry"/>
                </mxCell>
                <mxCell id="35" value="Initial" style="text;html=1;align=left;verticalAlign=middle;whiteSpace=wrap;rounded=0;" parent="1" vertex="1">
                    <mxGeometry x="40" y="10" width="60" height="30" as="geometry"/>
                </mxCell>
                <mxCell id="36" value="" style="childLayout=tableLayout;recursiveResize=0;shadow=0;fillColor=none;fontSize=12;" parent="1" vertex="1">
                    <mxGeometry x="240" y="40" width="900" height="283" as="geometry"/>
                </mxCell>
                <mxCell id="37" value="" style="shape=tableRow;horizontal=0;startSize=0;swimlaneHead=0;swimlaneBody=0;top=0;left=0;bottom=0;right=0;dropTarget=0;collapsible=0;recursiveResize=0;expand=0;fontStyle=0;fillColor=none;strokeColor=inherit;" parent="36" vertex="1">
                    <mxGeometry width="900" height="47" as="geometry"/>
                </mxCell>
                <mxCell id="38" value="Vorgangs_ID" style="connectable=0;recursiveResize=0;strokeColor=inherit;fillColor=none;align=left;whiteSpace=wrap;html=1;" parent="37" vertex="1">
                    <mxGeometry width="100" height="47" as="geometry">
                        <mxRectangle width="100" height="47" as="alternateBounds"/>
                    </mxGeometry>
                </mxCell>
                <mxCell id="39" value="Delinquent_ID" style="connectable=0;recursiveResize=0;strokeColor=inherit;fillColor=none;align=left;whiteSpace=wrap;html=1;" parent="37" vertex="1">
                    <mxGeometry x="100" width="100" height="47" as="geometry">
                        <mxRectangle width="100" height="47" as="alternateBounds"/>
                    </mxGeometry>
                </mxCell>
                <mxCell id="40" value="Anrede" style="connectable=0;recursiveResize=0;strokeColor=inherit;fillColor=none;align=left;whiteSpace=wrap;html=1;" parent="37" vertex="1">
                    <mxGeometry x="200" width="100" height="47" as="geometry">
                        <mxRectangle width="100" height="47" as="alternateBounds"/>
                    </mxGeometry>
                </mxCell>
                <mxCell id="49" value="Delinquent" style="connectable=0;recursiveResize=0;strokeColor=inherit;fillColor=none;align=left;whiteSpace=wrap;html=1;" parent="37" vertex="1">
                    <mxGeometry x="300" width="100" height="47" as="geometry">
                        <mxRectangle width="100" height="47" as="alternateBounds"/>
                    </mxGeometry>
                </mxCell>
                <mxCell id="52" value="Geburtsdatum" style="connectable=0;recursiveResize=0;strokeColor=inherit;fillColor=none;align=left;whiteSpace=wrap;html=1;" parent="37" vertex="1">
                    <mxGeometry x="400" width="100" height="47" as="geometry">
                        <mxRectangle width="100" height="47" as="alternateBounds"/>
                    </mxGeometry>
                </mxCell>
                <mxCell id="55" value="Delikt" style="connectable=0;recursiveResize=0;strokeColor=inherit;fillColor=none;align=left;whiteSpace=wrap;html=1;" parent="37" vertex="1">
                    <mxGeometry x="500" width="100" height="47" as="geometry">
                        <mxRectangle width="100" height="47" as="alternateBounds"/>
                    </mxGeometry>
                </mxCell>
                <mxCell id="58" value="Datum" style="connectable=0;recursiveResize=0;strokeColor=inherit;fillColor=none;align=left;whiteSpace=wrap;html=1;" parent="37" vertex="1">
                    <mxGeometry x="600" width="100" height="47" as="geometry">
                        <mxRectangle width="100" height="47" as="alternateBounds"/>
                    </mxGeometry>
                </mxCell>
                <mxCell id="61" value="Dokument" style="connectable=0;recursiveResize=0;strokeColor=inherit;fillColor=none;align=left;whiteSpace=wrap;html=1;" parent="37" vertex="1">
                    <mxGeometry x="700" width="100" height="47" as="geometry">
                        <mxRectangle width="100" height="47" as="alternateBounds"/>
                    </mxGeometry>
                </mxCell>
                <mxCell id="64" value="Bearbeiter" style="connectable=0;recursiveResize=0;strokeColor=inherit;fillColor=none;align=left;whiteSpace=wrap;html=1;" parent="37" vertex="1">
                    <mxGeometry x="800" width="100" height="47" as="geometry">
                        <mxRectangle width="100" height="47" as="alternateBounds"/>
                    </mxGeometry>
                </mxCell>
                <mxCell id="41" style="shape=tableRow;horizontal=0;startSize=0;swimlaneHead=0;swimlaneBody=0;top=0;left=0;bottom=0;right=0;dropTarget=0;collapsible=0;recursiveResize=0;expand=0;fontStyle=0;fillColor=none;strokeColor=inherit;" parent="36" vertex="1">
                    <mxGeometry y="47" width="900" height="48" as="geometry"/>
                </mxCell>
                <mxCell id="42" value="301" style="connectable=0;recursiveResize=0;strokeColor=inherit;fillColor=none;align=left;whiteSpace=wrap;html=1;" parent="41" vertex="1">
                    <mxGeometry width="100" height="48" as="geometry">
                        <mxRectangle width="100" height="48" as="alternateBounds"/>
                    </mxGeometry>
                </mxCell>
                <mxCell id="43" value="5645" style="connectable=0;recursiveResize=0;strokeColor=inherit;fillColor=none;align=left;whiteSpace=wrap;html=1;" parent="41" vertex="1">
                    <mxGeometry x="100" width="100" height="48" as="geometry">
                        <mxRectangle width="100" height="48" as="alternateBounds"/>
                    </mxGeometry>
                </mxCell>
                <mxCell id="44" value="Herr" style="connectable=0;recursiveResize=0;strokeColor=inherit;fillColor=none;align=left;whiteSpace=wrap;html=1;" parent="41" vertex="1">
                    <mxGeometry x="200" width="100" height="48" as="geometry">
                        <mxRectangle width="100" height="48" as="alternateBounds"/>
                    </mxGeometry>
                </mxCell>
                <mxCell id="50" value="xxx xxxx xxxxx" style="connectable=0;recursiveResize=0;strokeColor=inherit;fillColor=none;align=left;whiteSpace=wrap;html=1;" parent="41" vertex="1">
                    <mxGeometry x="300" width="100" height="48" as="geometry">
                        <mxRectangle width="100" height="48" as="alternateBounds"/>
                    </mxGeometry>
                </mxCell>
                <mxCell id="53" value="28.02.1970" style="connectable=0;recursiveResize=0;strokeColor=inherit;fillColor=none;align=left;whiteSpace=wrap;html=1;" parent="41" vertex="1">
                    <mxGeometry x="400" width="100" height="48" as="geometry">
                        <mxRectangle width="100" height="48" as="alternateBounds"/>
                    </mxGeometry>
                </mxCell>
                <mxCell id="56" value="Raub" style="connectable=0;recursiveResize=0;strokeColor=inherit;fillColor=none;align=left;whiteSpace=wrap;html=1;" parent="41" vertex="1">
                    <mxGeometry x="500" width="100" height="48" as="geometry">
                        <mxRectangle width="100" height="48" as="alternateBounds"/>
                    </mxGeometry>
                </mxCell>
                <mxCell id="59" value="02.04.2017" style="connectable=0;recursiveResize=0;strokeColor=inherit;fillColor=none;align=left;whiteSpace=wrap;html=1;" parent="41" vertex="1">
                    <mxGeometry x="600" width="100" height="48" as="geometry">
                        <mxRectangle width="100" height="48" as="alternateBounds"/>
                    </mxGeometry>
                </mxCell>
                <mxCell id="62" value="Perso, Fahrerlaubnis" style="connectable=0;recursiveResize=0;strokeColor=inherit;fillColor=none;align=left;whiteSpace=wrap;html=1;" parent="41" vertex="1">
                    <mxGeometry x="700" width="100" height="48" as="geometry">
                        <mxRectangle width="100" height="48" as="alternateBounds"/>
                    </mxGeometry>
                </mxCell>
                <mxCell id="65" value="Hansen, Klaus" style="connectable=0;recursiveResize=0;strokeColor=inherit;fillColor=none;align=left;whiteSpace=wrap;html=1;" parent="41" vertex="1">
                    <mxGeometry x="800" width="100" height="48" as="geometry">
                        <mxRectangle width="100" height="48" as="alternateBounds"/>
                    </mxGeometry>
                </mxCell>
                <mxCell id="45" style="shape=tableRow;horizontal=0;startSize=0;swimlaneHead=0;swimlaneBody=0;top=0;left=0;bottom=0;right=0;dropTarget=0;collapsible=0;recursiveResize=0;expand=0;fontStyle=0;fillColor=none;strokeColor=inherit;" parent="36" vertex="1">
                    <mxGeometry y="95" width="900" height="47" as="geometry"/>
                </mxCell>
                <mxCell id="46" value="302" style="connectable=0;recursiveResize=0;strokeColor=inherit;fillColor=none;align=left;whiteSpace=wrap;html=1;" parent="45" vertex="1">
                    <mxGeometry width="100" height="47" as="geometry">
                        <mxRectangle width="100" height="47" as="alternateBounds"/>
                    </mxGeometry>
                </mxCell>
                <mxCell id="47" value="1213" style="connectable=0;recursiveResize=0;strokeColor=inherit;fillColor=none;align=left;whiteSpace=wrap;html=1;" parent="45" vertex="1">
                    <mxGeometry x="100" width="100" height="47" as="geometry">
                        <mxRectangle width="100" height="47" as="alternateBounds"/>
                    </mxGeometry>
                </mxCell>
                <mxCell id="48" value="Herr" style="connectable=0;recursiveResize=0;strokeColor=inherit;fillColor=none;align=left;whiteSpace=wrap;html=1;" parent="45" vertex="1">
                    <mxGeometry x="200" width="100" height="47" as="geometry">
                        <mxRectangle width="100" height="47" as="alternateBounds"/>
                    </mxGeometry>
                </mxCell>
                <mxCell id="51" value="xxx xxx xxxxx" style="connectable=0;recursiveResize=0;strokeColor=inherit;fillColor=none;align=left;whiteSpace=wrap;html=1;" parent="45" vertex="1">
                    <mxGeometry x="300" width="100" height="47" as="geometry">
                        <mxRectangle width="100" height="47" as="alternateBounds"/>
                    </mxGeometry>
                </mxCell>
                <mxCell id="54" value="06.06.2000" style="connectable=0;recursiveResize=0;strokeColor=inherit;fillColor=none;align=left;whiteSpace=wrap;html=1;" parent="45" vertex="1">
                    <mxGeometry x="400" width="100" height="47" as="geometry">
                        <mxRectangle width="100" height="47" as="alternateBounds"/>
                    </mxGeometry>
                </mxCell>
                <mxCell id="57" value="Drogen" style="connectable=0;recursiveResize=0;strokeColor=inherit;fillColor=none;align=left;whiteSpace=wrap;html=1;" parent="45" vertex="1">
                    <mxGeometry x="500" width="100" height="47" as="geometry">
                        <mxRectangle width="100" height="47" as="alternateBounds"/>
                    </mxGeometry>
                </mxCell>
                <mxCell id="60" value="02.02.2014" style="connectable=0;recursiveResize=0;strokeColor=inherit;fillColor=none;align=left;whiteSpace=wrap;html=1;" parent="45" vertex="1">
                    <mxGeometry x="600" width="100" height="47" as="geometry">
                        <mxRectangle width="100" height="47" as="alternateBounds"/>
                    </mxGeometry>
                </mxCell>
                <mxCell id="63" value="Perso" style="connectable=0;recursiveResize=0;strokeColor=inherit;fillColor=none;align=left;whiteSpace=wrap;html=1;" parent="45" vertex="1">
                    <mxGeometry x="700" width="100" height="47" as="geometry">
                        <mxRectangle width="100" height="47" as="alternateBounds"/>
                    </mxGeometry>
                </mxCell>
                <mxCell id="66" value="Müller, Marcel" style="connectable=0;recursiveResize=0;strokeColor=inherit;fillColor=none;align=left;whiteSpace=wrap;html=1;" parent="45" vertex="1">
                    <mxGeometry x="800" width="100" height="47" as="geometry">
                        <mxRectangle width="100" height="47" as="alternateBounds"/>
                    </mxGeometry>
                </mxCell>
                <mxCell id="67" style="shape=tableRow;horizontal=0;startSize=0;swimlaneHead=0;swimlaneBody=0;top=0;left=0;bottom=0;right=0;dropTarget=0;collapsible=0;recursiveResize=0;expand=0;fontStyle=0;fillColor=none;strokeColor=inherit;" parent="36" vertex="1">
                    <mxGeometry y="142" width="900" height="47" as="geometry"/>
                </mxCell>
                <mxCell id="68" value="303" style="connectable=0;recursiveResize=0;strokeColor=inherit;fillColor=none;align=left;whiteSpace=wrap;html=1;" parent="67" vertex="1">
                    <mxGeometry width="100" height="47" as="geometry">
                        <mxRectangle width="100" height="47" as="alternateBounds"/>
                    </mxGeometry>
                </mxCell>
                <mxCell id="69" value="7887" style="connectable=0;recursiveResize=0;strokeColor=inherit;fillColor=none;align=left;whiteSpace=wrap;html=1;" parent="67" vertex="1">
                    <mxGeometry x="100" width="100" height="47" as="geometry">
                        <mxRectangle width="100" height="47" as="alternateBounds"/>
                    </mxGeometry>
                </mxCell>
                <mxCell id="70" value="Herr" style="connectable=0;recursiveResize=0;strokeColor=inherit;fillColor=none;align=left;whiteSpace=wrap;html=1;" parent="67" vertex="1">
                    <mxGeometry x="200" width="100" height="47" as="geometry">
                        <mxRectangle width="100" height="47" as="alternateBounds"/>
                    </mxGeometry>
                </mxCell>
                <mxCell id="71" value="xxxx xx" style="connectable=0;recursiveResize=0;strokeColor=inherit;fillColor=none;align=left;whiteSpace=wrap;html=1;" parent="67" vertex="1">
                    <mxGeometry x="300" width="100" height="47" as="geometry">
                        <mxRectangle width="100" height="47" as="alternateBounds"/>
                    </mxGeometry>
                </mxCell>
                <mxCell id="72" value="01.07.1988" style="connectable=0;recursiveResize=0;strokeColor=inherit;fillColor=none;align=left;whiteSpace=wrap;html=1;" parent="67" vertex="1">
                    <mxGeometry x="400" width="100" height="47" as="geometry">
                        <mxRectangle width="100" height="47" as="alternateBounds"/>
                    </mxGeometry>
                </mxCell>
                <mxCell id="73" value="Fahrerflucht, Drogen" style="connectable=0;recursiveResize=0;strokeColor=inherit;fillColor=none;align=left;whiteSpace=wrap;html=1;" parent="67" vertex="1">
                    <mxGeometry x="500" width="100" height="47" as="geometry">
                        <mxRectangle width="100" height="47" as="alternateBounds"/>
                    </mxGeometry>
                </mxCell>
                <mxCell id="74" value="30.03.2017" style="connectable=0;recursiveResize=0;strokeColor=inherit;fillColor=none;align=left;whiteSpace=wrap;html=1;" parent="67" vertex="1">
                    <mxGeometry x="600" width="100" height="47" as="geometry">
                        <mxRectangle width="100" height="47" as="alternateBounds"/>
                    </mxGeometry>
                </mxCell>
                <mxCell id="75" value="Reisepass, Fahrerlaubnis" style="connectable=0;recursiveResize=0;strokeColor=inherit;fillColor=none;align=left;whiteSpace=wrap;html=1;" parent="67" vertex="1">
                    <mxGeometry x="700" width="100" height="47" as="geometry">
                        <mxRectangle width="100" height="47" as="alternateBounds"/>
                    </mxGeometry>
                </mxCell>
                <mxCell id="76" value="&#xa;&lt;span style=&quot;color: rgb(0, 0, 0); font-family: Helvetica; font-size: 12px; font-style: normal; font-variant-ligatures: normal; font-variant-caps: normal; font-weight: 400; letter-spacing: normal; orphans: 2; text-align: left; text-indent: 0px; text-transform: none; widows: 2; word-spacing: 0px; -webkit-text-stroke-width: 0px; white-space: normal; background-color: rgb(251, 251, 251); text-decoration-thickness: initial; text-decoration-style: initial; text-decoration-color: initial; display: inline !important; float: none;&quot;&gt;Hansen, Klaus&lt;/span&gt;&#xa;&#xa;" style="connectable=0;recursiveResize=0;strokeColor=inherit;fillColor=none;align=left;whiteSpace=wrap;html=1;" parent="67" vertex="1">
                    <mxGeometry x="800" width="100" height="47" as="geometry">
                        <mxRectangle width="100" height="47" as="alternateBounds"/>
                    </mxGeometry>
                </mxCell>
                <mxCell id="77" style="shape=tableRow;horizontal=0;startSize=0;swimlaneHead=0;swimlaneBody=0;top=0;left=0;bottom=0;right=0;dropTarget=0;collapsible=0;recursiveResize=0;expand=0;fontStyle=0;fillColor=none;strokeColor=inherit;" parent="36" vertex="1">
                    <mxGeometry y="189" width="900" height="47" as="geometry"/>
                </mxCell>
                <mxCell id="78" value="304" style="connectable=0;recursiveResize=0;strokeColor=inherit;fillColor=none;align=left;whiteSpace=wrap;html=1;" parent="77" vertex="1">
                    <mxGeometry width="100" height="47" as="geometry">
                        <mxRectangle width="100" height="47" as="alternateBounds"/>
                    </mxGeometry>
                </mxCell>
                <mxCell id="79" value="4545" style="connectable=0;recursiveResize=0;strokeColor=inherit;fillColor=none;align=left;whiteSpace=wrap;html=1;" parent="77" vertex="1">
                    <mxGeometry x="100" width="100" height="47" as="geometry">
                        <mxRectangle width="100" height="47" as="alternateBounds"/>
                    </mxGeometry>
                </mxCell>
                <mxCell id="80" value="Frau" style="connectable=0;recursiveResize=0;strokeColor=inherit;fillColor=none;align=left;whiteSpace=wrap;html=1;" parent="77" vertex="1">
                    <mxGeometry x="200" width="100" height="47" as="geometry">
                        <mxRectangle width="100" height="47" as="alternateBounds"/>
                    </mxGeometry>
                </mxCell>
                <mxCell id="81" value="x xxx" style="connectable=0;recursiveResize=0;strokeColor=inherit;fillColor=none;align=left;whiteSpace=wrap;html=1;" parent="77" vertex="1">
                    <mxGeometry x="300" width="100" height="47" as="geometry">
                        <mxRectangle width="100" height="47" as="alternateBounds"/>
                    </mxGeometry>
                </mxCell>
                <mxCell id="82" value="16.08.1991" style="connectable=0;recursiveResize=0;strokeColor=inherit;fillColor=none;align=left;whiteSpace=wrap;html=1;" parent="77" vertex="1">
                    <mxGeometry x="400" width="100" height="47" as="geometry">
                        <mxRectangle width="100" height="47" as="alternateBounds"/>
                    </mxGeometry>
                </mxCell>
                <mxCell id="83" value="Drogen" style="connectable=0;recursiveResize=0;strokeColor=inherit;fillColor=none;align=left;whiteSpace=wrap;html=1;" parent="77" vertex="1">
                    <mxGeometry x="500" width="100" height="47" as="geometry">
                        <mxRectangle width="100" height="47" as="alternateBounds"/>
                    </mxGeometry>
                </mxCell>
                <mxCell id="84" value="12.04.2017" style="connectable=0;recursiveResize=0;strokeColor=inherit;fillColor=none;align=left;whiteSpace=wrap;html=1;" parent="77" vertex="1">
                    <mxGeometry x="600" width="100" height="47" as="geometry">
                        <mxRectangle width="100" height="47" as="alternateBounds"/>
                    </mxGeometry>
                </mxCell>
                <mxCell id="85" value="Perso" style="connectable=0;recursiveResize=0;strokeColor=inherit;fillColor=none;align=left;whiteSpace=wrap;html=1;" parent="77" vertex="1">
                    <mxGeometry x="700" width="100" height="47" as="geometry">
                        <mxRectangle width="100" height="47" as="alternateBounds"/>
                    </mxGeometry>
                </mxCell>
                <mxCell id="86" value="Wagner, Wolfgang" style="connectable=0;recursiveResize=0;strokeColor=inherit;fillColor=none;align=left;whiteSpace=wrap;html=1;" parent="77" vertex="1">
                    <mxGeometry x="800" width="100" height="47" as="geometry">
                        <mxRectangle width="100" height="47" as="alternateBounds"/>
                    </mxGeometry>
                </mxCell>
                <mxCell id="87" style="shape=tableRow;horizontal=0;startSize=0;swimlaneHead=0;swimlaneBody=0;top=0;left=0;bottom=0;right=0;dropTarget=0;collapsible=0;recursiveResize=0;expand=0;fontStyle=0;fillColor=none;strokeColor=inherit;" parent="36" vertex="1">
                    <mxGeometry y="236" width="900" height="47" as="geometry"/>
                </mxCell>
                <mxCell id="88" value="305" style="connectable=0;recursiveResize=0;strokeColor=inherit;fillColor=none;align=left;whiteSpace=wrap;html=1;" parent="87" vertex="1">
                    <mxGeometry width="100" height="47" as="geometry">
                        <mxRectangle width="100" height="47" as="alternateBounds"/>
                    </mxGeometry>
                </mxCell>
                <mxCell id="89" value="1213" style="connectable=0;recursiveResize=0;strokeColor=inherit;fillColor=none;align=left;whiteSpace=wrap;html=1;" parent="87" vertex="1">
                    <mxGeometry x="100" width="100" height="47" as="geometry">
                        <mxRectangle width="100" height="47" as="alternateBounds"/>
                    </mxGeometry>
                </mxCell>
                <mxCell id="90" value="Herr" style="connectable=0;recursiveResize=0;strokeColor=inherit;fillColor=none;align=left;whiteSpace=wrap;html=1;" parent="87" vertex="1">
                    <mxGeometry x="200" width="100" height="47" as="geometry">
                        <mxRectangle width="100" height="47" as="alternateBounds"/>
                    </mxGeometry>
                </mxCell>
                <mxCell id="91" value="x x" style="connectable=0;recursiveResize=0;strokeColor=inherit;fillColor=none;align=left;whiteSpace=wrap;html=1;" parent="87" vertex="1">
                    <mxGeometry x="300" width="100" height="47" as="geometry">
                        <mxRectangle width="100" height="47" as="alternateBounds"/>
                    </mxGeometry>
                </mxCell>
                <mxCell id="92" value="06.06.2000" style="connectable=0;recursiveResize=0;strokeColor=inherit;fillColor=none;align=left;whiteSpace=wrap;html=1;" parent="87" vertex="1">
                    <mxGeometry x="400" width="100" height="47" as="geometry">
                        <mxRectangle width="100" height="47" as="alternateBounds"/>
                    </mxGeometry>
                </mxCell>
                <mxCell id="93" value="Körperverletzung" style="connectable=0;recursiveResize=0;strokeColor=inherit;fillColor=none;align=left;whiteSpace=wrap;html=1;" parent="87" vertex="1">
                    <mxGeometry x="500" width="100" height="47" as="geometry">
                        <mxRectangle width="100" height="47" as="alternateBounds"/>
                    </mxGeometry>
                </mxCell>
                <mxCell id="94" value="08.03.2015" style="connectable=0;recursiveResize=0;strokeColor=inherit;fillColor=none;align=left;whiteSpace=wrap;html=1;" parent="87" vertex="1">
                    <mxGeometry x="600" width="100" height="47" as="geometry">
                        <mxRectangle width="100" height="47" as="alternateBounds"/>
                    </mxGeometry>
                </mxCell>
                <mxCell id="95" value="Perso" style="connectable=0;recursiveResize=0;strokeColor=inherit;fillColor=none;align=left;whiteSpace=wrap;html=1;" parent="87" vertex="1">
                    <mxGeometry x="700" width="100" height="47" as="geometry">
                        <mxRectangle width="100" height="47" as="alternateBounds"/>
                    </mxGeometry>
                </mxCell>
                <mxCell id="96" value="&#xa;&lt;span style=&quot;color: rgb(0, 0, 0); font-family: Helvetica; font-size: 12px; font-style: normal; font-variant-ligatures: normal; font-variant-caps: normal; font-weight: 400; letter-spacing: normal; orphans: 2; text-align: left; text-indent: 0px; text-transform: none; widows: 2; word-spacing: 0px; -webkit-text-stroke-width: 0px; white-space: normal; background-color: rgb(251, 251, 251); text-decoration-thickness: initial; text-decoration-style: initial; text-decoration-color: initial; display: inline !important; float: none;&quot;&gt;Hansen, Klaus&lt;/span&gt;&#xa;&#xa;" style="connectable=0;recursiveResize=0;strokeColor=inherit;fillColor=none;align=left;whiteSpace=wrap;html=1;" parent="87" vertex="1">
                    <mxGeometry x="800" width="100" height="47" as="geometry">
                        <mxRectangle width="100" height="47" as="alternateBounds"/>
                    </mxGeometry>
                </mxCell>
                <mxCell id="97" value="" style="childLayout=tableLayout;recursiveResize=0;shadow=0;fillColor=none;fontSize=12;" parent="1" vertex="1">
                    <mxGeometry x="490" y="970" width="400" height="283" as="geometry"/>
                </mxCell>
                <mxCell id="98" value="" style="shape=tableRow;horizontal=0;startSize=0;swimlaneHead=0;swimlaneBody=0;top=0;left=0;bottom=0;right=0;dropTarget=0;collapsible=0;recursiveResize=0;expand=0;fontStyle=0;fillColor=none;strokeColor=inherit;" parent="97" vertex="1">
                    <mxGeometry width="400" height="47" as="geometry"/>
                </mxCell>
                <mxCell id="99" value="&lt;u&gt;Vorgang_ID&lt;/u&gt;" style="connectable=0;recursiveResize=0;strokeColor=inherit;fillColor=none;align=left;whiteSpace=wrap;html=1;" parent="98" vertex="1">
                    <mxGeometry width="100" height="47" as="geometry">
                        <mxRectangle width="100" height="47" as="alternateBounds"/>
                    </mxGeometry>
                </mxCell>
                <mxCell id="100" value="Delinquent_ID" style="connectable=0;recursiveResize=0;strokeColor=inherit;fillColor=none;align=left;whiteSpace=wrap;html=1;" parent="98" vertex="1">
                    <mxGeometry x="100" width="100" height="47" as="geometry">
                        <mxRectangle width="100" height="47" as="alternateBounds"/>
                    </mxGeometry>
                </mxCell>
                <mxCell id="105" value="Datum" style="connectable=0;recursiveResize=0;strokeColor=inherit;fillColor=none;align=left;whiteSpace=wrap;html=1;" parent="98" vertex="1">
                    <mxGeometry x="200" width="100" height="47" as="geometry">
                        <mxRectangle width="100" height="47" as="alternateBounds"/>
                    </mxGeometry>
                </mxCell>
                <mxCell id="107" value="&lt;span style=&quot;color: rgb(0, 0, 0);&quot;&gt;Bearbeiter_ID&lt;/span&gt;" style="connectable=0;recursiveResize=0;strokeColor=inherit;fillColor=none;align=left;whiteSpace=wrap;html=1;" parent="98" vertex="1">
                    <mxGeometry x="300" width="100" height="47" as="geometry">
                        <mxRectangle width="100" height="47" as="alternateBounds"/>
                    </mxGeometry>
                </mxCell>
                <mxCell id="108" style="shape=tableRow;horizontal=0;startSize=0;swimlaneHead=0;swimlaneBody=0;top=0;left=0;bottom=0;right=0;dropTarget=0;collapsible=0;recursiveResize=0;expand=0;fontStyle=0;fillColor=none;strokeColor=inherit;" parent="97" vertex="1">
                    <mxGeometry y="47" width="400" height="48" as="geometry"/>
                </mxCell>
                <mxCell id="109" value="301" style="connectable=0;recursiveResize=0;strokeColor=inherit;fillColor=none;align=left;whiteSpace=wrap;html=1;" parent="108" vertex="1">
                    <mxGeometry width="100" height="48" as="geometry">
                        <mxRectangle width="100" height="48" as="alternateBounds"/>
                    </mxGeometry>
                </mxCell>
                <mxCell id="110" value="5645" style="connectable=0;recursiveResize=0;strokeColor=inherit;fillColor=none;align=left;whiteSpace=wrap;html=1;" parent="108" vertex="1">
                    <mxGeometry x="100" width="100" height="48" as="geometry">
                        <mxRectangle width="100" height="48" as="alternateBounds"/>
                    </mxGeometry>
                </mxCell>
                <mxCell id="115" value="02.04.2017" style="connectable=0;recursiveResize=0;strokeColor=inherit;fillColor=none;align=left;whiteSpace=wrap;html=1;" parent="108" vertex="1">
                    <mxGeometry x="200" width="100" height="48" as="geometry">
                        <mxRectangle width="100" height="48" as="alternateBounds"/>
                    </mxGeometry>
                </mxCell>
                <mxCell id="117" value="1" style="connectable=0;recursiveResize=0;strokeColor=inherit;fillColor=none;align=left;whiteSpace=wrap;html=1;" parent="108" vertex="1">
                    <mxGeometry x="300" width="100" height="48" as="geometry">
                        <mxRectangle width="100" height="48" as="alternateBounds"/>
                    </mxGeometry>
                </mxCell>
                <mxCell id="118" style="shape=tableRow;horizontal=0;startSize=0;swimlaneHead=0;swimlaneBody=0;top=0;left=0;bottom=0;right=0;dropTarget=0;collapsible=0;recursiveResize=0;expand=0;fontStyle=0;fillColor=none;strokeColor=inherit;" parent="97" vertex="1">
                    <mxGeometry y="95" width="400" height="47" as="geometry"/>
                </mxCell>
                <mxCell id="119" value="302" style="connectable=0;recursiveResize=0;strokeColor=inherit;fillColor=none;align=left;whiteSpace=wrap;html=1;" parent="118" vertex="1">
                    <mxGeometry width="100" height="47" as="geometry">
                        <mxRectangle width="100" height="47" as="alternateBounds"/>
                    </mxGeometry>
                </mxCell>
                <mxCell id="120" value="1213" style="connectable=0;recursiveResize=0;strokeColor=inherit;fillColor=none;align=left;whiteSpace=wrap;html=1;" parent="118" vertex="1">
                    <mxGeometry x="100" width="100" height="47" as="geometry">
                        <mxRectangle width="100" height="47" as="alternateBounds"/>
                    </mxGeometry>
                </mxCell>
                <mxCell id="125" value="02.02.2014" style="connectable=0;recursiveResize=0;strokeColor=inherit;fillColor=none;align=left;whiteSpace=wrap;html=1;" parent="118" vertex="1">
                    <mxGeometry x="200" width="100" height="47" as="geometry">
                        <mxRectangle width="100" height="47" as="alternateBounds"/>
                    </mxGeometry>
                </mxCell>
                <mxCell id="127" value="2" style="connectable=0;recursiveResize=0;strokeColor=inherit;fillColor=none;align=left;whiteSpace=wrap;html=1;" parent="118" vertex="1">
                    <mxGeometry x="300" width="100" height="47" as="geometry">
                        <mxRectangle width="100" height="47" as="alternateBounds"/>
                    </mxGeometry>
                </mxCell>
                <mxCell id="128" style="shape=tableRow;horizontal=0;startSize=0;swimlaneHead=0;swimlaneBody=0;top=0;left=0;bottom=0;right=0;dropTarget=0;collapsible=0;recursiveResize=0;expand=0;fontStyle=0;fillColor=none;strokeColor=inherit;" parent="97" vertex="1">
                    <mxGeometry y="142" width="400" height="47" as="geometry"/>
                </mxCell>
                <mxCell id="129" value="303" style="connectable=0;recursiveResize=0;strokeColor=inherit;fillColor=none;align=left;whiteSpace=wrap;html=1;" parent="128" vertex="1">
                    <mxGeometry width="100" height="47" as="geometry">
                        <mxRectangle width="100" height="47" as="alternateBounds"/>
                    </mxGeometry>
                </mxCell>
                <mxCell id="130" value="7887" style="connectable=0;recursiveResize=0;strokeColor=inherit;fillColor=none;align=left;whiteSpace=wrap;html=1;" parent="128" vertex="1">
                    <mxGeometry x="100" width="100" height="47" as="geometry">
                        <mxRectangle width="100" height="47" as="alternateBounds"/>
                    </mxGeometry>
                </mxCell>
                <mxCell id="135" value="30.03.2017" style="connectable=0;recursiveResize=0;strokeColor=inherit;fillColor=none;align=left;whiteSpace=wrap;html=1;" parent="128" vertex="1">
                    <mxGeometry x="200" width="100" height="47" as="geometry">
                        <mxRectangle width="100" height="47" as="alternateBounds"/>
                    </mxGeometry>
                </mxCell>
                <mxCell id="137" value="&lt;div&gt;1&lt;/div&gt;" style="connectable=0;recursiveResize=0;strokeColor=inherit;fillColor=none;align=left;whiteSpace=wrap;html=1;" parent="128" vertex="1">
                    <mxGeometry x="300" width="100" height="47" as="geometry">
                        <mxRectangle width="100" height="47" as="alternateBounds"/>
                    </mxGeometry>
                </mxCell>
                <mxCell id="138" style="shape=tableRow;horizontal=0;startSize=0;swimlaneHead=0;swimlaneBody=0;top=0;left=0;bottom=0;right=0;dropTarget=0;collapsible=0;recursiveResize=0;expand=0;fontStyle=0;fillColor=none;strokeColor=inherit;" parent="97" vertex="1">
                    <mxGeometry y="189" width="400" height="47" as="geometry"/>
                </mxCell>
                <mxCell id="139" value="304" style="connectable=0;recursiveResize=0;strokeColor=inherit;fillColor=none;align=left;whiteSpace=wrap;html=1;" parent="138" vertex="1">
                    <mxGeometry width="100" height="47" as="geometry">
                        <mxRectangle width="100" height="47" as="alternateBounds"/>
                    </mxGeometry>
                </mxCell>
                <mxCell id="140" value="4545" style="connectable=0;recursiveResize=0;strokeColor=inherit;fillColor=none;align=left;whiteSpace=wrap;html=1;" parent="138" vertex="1">
                    <mxGeometry x="100" width="100" height="47" as="geometry">
                        <mxRectangle width="100" height="47" as="alternateBounds"/>
                    </mxGeometry>
                </mxCell>
                <mxCell id="145" value="12.04.2017" style="connectable=0;recursiveResize=0;strokeColor=inherit;fillColor=none;align=left;whiteSpace=wrap;html=1;" parent="138" vertex="1">
                    <mxGeometry x="200" width="100" height="47" as="geometry">
                        <mxRectangle width="100" height="47" as="alternateBounds"/>
                    </mxGeometry>
                </mxCell>
                <mxCell id="147" value="3" style="connectable=0;recursiveResize=0;strokeColor=inherit;fillColor=none;align=left;whiteSpace=wrap;html=1;" parent="138" vertex="1">
                    <mxGeometry x="300" width="100" height="47" as="geometry">
                        <mxRectangle width="100" height="47" as="alternateBounds"/>
                    </mxGeometry>
                </mxCell>
                <mxCell id="148" style="shape=tableRow;horizontal=0;startSize=0;swimlaneHead=0;swimlaneBody=0;top=0;left=0;bottom=0;right=0;dropTarget=0;collapsible=0;recursiveResize=0;expand=0;fontStyle=0;fillColor=none;strokeColor=inherit;" parent="97" vertex="1">
                    <mxGeometry y="236" width="400" height="47" as="geometry"/>
                </mxCell>
                <mxCell id="149" value="305" style="connectable=0;recursiveResize=0;strokeColor=inherit;fillColor=none;align=left;whiteSpace=wrap;html=1;" parent="148" vertex="1">
                    <mxGeometry width="100" height="47" as="geometry">
                        <mxRectangle width="100" height="47" as="alternateBounds"/>
                    </mxGeometry>
                </mxCell>
                <mxCell id="150" value="1213" style="connectable=0;recursiveResize=0;strokeColor=inherit;fillColor=none;align=left;whiteSpace=wrap;html=1;" parent="148" vertex="1">
                    <mxGeometry x="100" width="100" height="47" as="geometry">
                        <mxRectangle width="100" height="47" as="alternateBounds"/>
                    </mxGeometry>
                </mxCell>
                <mxCell id="155" value="08.03.2015" style="connectable=0;recursiveResize=0;strokeColor=inherit;fillColor=none;align=left;whiteSpace=wrap;html=1;" parent="148" vertex="1">
                    <mxGeometry x="200" width="100" height="47" as="geometry">
                        <mxRectangle width="100" height="47" as="alternateBounds"/>
                    </mxGeometry>
                </mxCell>
                <mxCell id="157" value="&lt;div&gt;1&lt;/div&gt;" style="connectable=0;recursiveResize=0;strokeColor=inherit;fillColor=none;align=left;whiteSpace=wrap;html=1;" parent="148" vertex="1">
                    <mxGeometry x="300" width="100" height="47" as="geometry">
                        <mxRectangle width="100" height="47" as="alternateBounds"/>
                    </mxGeometry>
                </mxCell>
                <mxCell id="270" value="2.NF - Neue Tabellen möglich, Alle nicht-Schlüssel müssen funktional abhängig zum jeweiligen Schlüssel sein" style="text;html=1;align=left;verticalAlign=middle;whiteSpace=wrap;rounded=0;" parent="1" vertex="1">
                    <mxGeometry x="40" y="920" width="660" height="30" as="geometry"/>
                </mxCell>
                <mxCell id="271" value="&lt;u&gt;Delinquent_ID&lt;/u&gt;" style="connectable=0;recursiveResize=0;strokeColor=inherit;fillColor=none;align=left;whiteSpace=wrap;html=1;" parent="1" vertex="1">
                    <mxGeometry x="60" y="970" width="100" height="47" as="geometry">
                        <mxRectangle width="100" height="47" as="alternateBounds"/>
                    </mxGeometry>
                </mxCell>
                <mxCell id="272" value="Anrede_ID" style="connectable=0;recursiveResize=0;strokeColor=inherit;fillColor=none;align=left;whiteSpace=wrap;html=1;" parent="1" vertex="1">
                    <mxGeometry x="160" y="970" width="100" height="47" as="geometry">
                        <mxRectangle width="100" height="47" as="alternateBounds"/>
                    </mxGeometry>
                </mxCell>
                <mxCell id="273" value="Delinquent" style="connectable=0;recursiveResize=0;strokeColor=inherit;fillColor=none;align=left;whiteSpace=wrap;html=1;" parent="1" vertex="1">
                    <mxGeometry x="260" y="970" width="100" height="47" as="geometry">
                        <mxRectangle width="100" height="47" as="alternateBounds"/>
                    </mxGeometry>
                </mxCell>
                <mxCell id="274" value="Geburtsdatum" style="connectable=0;recursiveResize=0;strokeColor=inherit;fillColor=none;align=left;whiteSpace=wrap;html=1;" parent="1" vertex="1">
                    <mxGeometry x="360" y="970" width="100" height="47" as="geometry">
                        <mxRectangle width="100" height="47" as="alternateBounds"/>
                    </mxGeometry>
                </mxCell>
                <mxCell id="275" value="5645" style="connectable=0;recursiveResize=0;strokeColor=inherit;fillColor=none;align=left;whiteSpace=wrap;html=1;" parent="1" vertex="1">
                    <mxGeometry x="60" y="1017" width="100" height="48" as="geometry">
                        <mxRectangle width="100" height="48" as="alternateBounds"/>
                    </mxGeometry>
                </mxCell>
                <mxCell id="276" value="1" style="connectable=0;recursiveResize=0;strokeColor=inherit;fillColor=none;align=left;whiteSpace=wrap;html=1;" parent="1" vertex="1">
                    <mxGeometry x="160" y="1017" width="100" height="48" as="geometry">
                        <mxRectangle width="100" height="48" as="alternateBounds"/>
                    </mxGeometry>
                </mxCell>
                <mxCell id="277" value="xxx xxxx xxxxx" style="connectable=0;recursiveResize=0;strokeColor=inherit;fillColor=none;align=left;whiteSpace=wrap;html=1;" parent="1" vertex="1">
                    <mxGeometry x="260" y="1017" width="100" height="48" as="geometry">
                        <mxRectangle width="100" height="48" as="alternateBounds"/>
                    </mxGeometry>
                </mxCell>
                <mxCell id="278" value="28.02.1970" style="connectable=0;recursiveResize=0;strokeColor=inherit;fillColor=none;align=left;whiteSpace=wrap;html=1;" parent="1" vertex="1">
                    <mxGeometry x="360" y="1017" width="100" height="48" as="geometry">
                        <mxRectangle width="100" height="48" as="alternateBounds"/>
                    </mxGeometry>
                </mxCell>
                <mxCell id="283" value="1213" style="connectable=0;recursiveResize=0;strokeColor=inherit;fillColor=none;align=left;whiteSpace=wrap;html=1;" parent="1" vertex="1">
                    <mxGeometry x="60" y="1065" width="100" height="47" as="geometry">
                        <mxRectangle width="100" height="47" as="alternateBounds"/>
                    </mxGeometry>
                </mxCell>
                <mxCell id="284" value="1" style="connectable=0;recursiveResize=0;strokeColor=inherit;fillColor=none;align=left;whiteSpace=wrap;html=1;" parent="1" vertex="1">
                    <mxGeometry x="160" y="1065" width="100" height="47" as="geometry">
                        <mxRectangle width="100" height="47" as="alternateBounds"/>
                    </mxGeometry>
                </mxCell>
                <mxCell id="285" value="xxx xxx xxxxx" style="connectable=0;recursiveResize=0;strokeColor=inherit;fillColor=none;align=left;whiteSpace=wrap;html=1;" parent="1" vertex="1">
                    <mxGeometry x="260" y="1065" width="100" height="47" as="geometry">
                        <mxRectangle width="100" height="47" as="alternateBounds"/>
                    </mxGeometry>
                </mxCell>
                <mxCell id="286" value="06.06.2000" style="connectable=0;recursiveResize=0;strokeColor=inherit;fillColor=none;align=left;whiteSpace=wrap;html=1;" parent="1" vertex="1">
                    <mxGeometry x="360" y="1065" width="100" height="47" as="geometry">
                        <mxRectangle width="100" height="47" as="alternateBounds"/>
                    </mxGeometry>
                </mxCell>
                <mxCell id="299" value="7887" style="connectable=0;recursiveResize=0;strokeColor=inherit;fillColor=none;align=left;whiteSpace=wrap;html=1;" parent="1" vertex="1">
                    <mxGeometry x="60" y="1112" width="100" height="47" as="geometry">
                        <mxRectangle width="100" height="47" as="alternateBounds"/>
                    </mxGeometry>
                </mxCell>
                <mxCell id="300" value="1" style="connectable=0;recursiveResize=0;strokeColor=inherit;fillColor=none;align=left;whiteSpace=wrap;html=1;" parent="1" vertex="1">
                    <mxGeometry x="160" y="1112" width="100" height="47" as="geometry">
                        <mxRectangle width="100" height="47" as="alternateBounds"/>
                    </mxGeometry>
                </mxCell>
                <mxCell id="301" value="xxxx xx" style="connectable=0;recursiveResize=0;strokeColor=inherit;fillColor=none;align=left;whiteSpace=wrap;html=1;" parent="1" vertex="1">
                    <mxGeometry x="260" y="1112" width="100" height="47" as="geometry">
                        <mxRectangle width="100" height="47" as="alternateBounds"/>
                    </mxGeometry>
                </mxCell>
                <mxCell id="302" value="01.07.1988" style="connectable=0;recursiveResize=0;strokeColor=inherit;fillColor=none;align=left;whiteSpace=wrap;html=1;" parent="1" vertex="1">
                    <mxGeometry x="360" y="1112" width="100" height="47" as="geometry">
                        <mxRectangle width="100" height="47" as="alternateBounds"/>
                    </mxGeometry>
                </mxCell>
                <mxCell id="303" value="4545" style="connectable=0;recursiveResize=0;strokeColor=inherit;fillColor=none;align=left;whiteSpace=wrap;html=1;" parent="1" vertex="1">
                    <mxGeometry x="60" y="1159" width="100" height="47" as="geometry">
                        <mxRectangle width="100" height="47" as="alternateBounds"/>
                    </mxGeometry>
                </mxCell>
                <mxCell id="304" value="2" style="connectable=0;recursiveResize=0;strokeColor=inherit;fillColor=none;align=left;whiteSpace=wrap;html=1;" parent="1" vertex="1">
                    <mxGeometry x="160" y="1159" width="100" height="47" as="geometry">
                        <mxRectangle width="100" height="47" as="alternateBounds"/>
                    </mxGeometry>
                </mxCell>
                <mxCell id="305" value="x xxx" style="connectable=0;recursiveResize=0;strokeColor=inherit;fillColor=none;align=left;whiteSpace=wrap;html=1;" parent="1" vertex="1">
                    <mxGeometry x="260" y="1159" width="100" height="47" as="geometry">
                        <mxRectangle width="100" height="47" as="alternateBounds"/>
                    </mxGeometry>
                </mxCell>
                <mxCell id="306" value="16.08.1991" style="connectable=0;recursiveResize=0;strokeColor=inherit;fillColor=none;align=left;whiteSpace=wrap;html=1;" parent="1" vertex="1">
                    <mxGeometry x="360" y="1159" width="100" height="47" as="geometry">
                        <mxRectangle width="100" height="47" as="alternateBounds"/>
                    </mxGeometry>
                </mxCell>
                <mxCell id="307" value="1213" style="connectable=0;recursiveResize=0;strokeColor=inherit;fillColor=none;align=left;whiteSpace=wrap;html=1;" parent="1" vertex="1">
                    <mxGeometry x="60" y="1206" width="100" height="47" as="geometry">
                        <mxRectangle width="100" height="47" as="alternateBounds"/>
                    </mxGeometry>
                </mxCell>
                <mxCell id="308" value="1" style="connectable=0;recursiveResize=0;strokeColor=inherit;fillColor=none;align=left;whiteSpace=wrap;html=1;" parent="1" vertex="1">
                    <mxGeometry x="160" y="1206" width="100" height="47" as="geometry">
                        <mxRectangle width="100" height="47" as="alternateBounds"/>
                    </mxGeometry>
                </mxCell>
                <mxCell id="309" value="x x" style="connectable=0;recursiveResize=0;strokeColor=inherit;fillColor=none;align=left;whiteSpace=wrap;html=1;" parent="1" vertex="1">
                    <mxGeometry x="260" y="1206" width="100" height="47" as="geometry">
                        <mxRectangle width="100" height="47" as="alternateBounds"/>
                    </mxGeometry>
                </mxCell>
                <mxCell id="310" value="06.06.2000" style="connectable=0;recursiveResize=0;strokeColor=inherit;fillColor=none;align=left;whiteSpace=wrap;html=1;" parent="1" vertex="1">
                    <mxGeometry x="360" y="1206" width="100" height="47" as="geometry">
                        <mxRectangle width="100" height="47" as="alternateBounds"/>
                    </mxGeometry>
                </mxCell>
                <mxCell id="311" value="" style="childLayout=tableLayout;recursiveResize=0;shadow=0;fillColor=none;fontSize=12;" parent="1" vertex="1">
                    <mxGeometry x="50" y="410" width="1020" height="471" as="geometry"/>
                </mxCell>
                <mxCell id="312" value="" style="shape=tableRow;horizontal=0;startSize=0;swimlaneHead=0;swimlaneBody=0;top=0;left=0;bottom=0;right=0;dropTarget=0;collapsible=0;recursiveResize=0;expand=0;fontStyle=0;fillColor=none;strokeColor=inherit;" parent="311" vertex="1">
                    <mxGeometry width="1020" height="47" as="geometry"/>
                </mxCell>
                <mxCell id="313" value="&lt;u&gt;Vorgangs_ID&lt;/u&gt;" style="connectable=0;recursiveResize=0;strokeColor=inherit;fillColor=none;align=left;whiteSpace=wrap;html=1;" parent="312" vertex="1">
                    <mxGeometry width="100" height="47" as="geometry">
                        <mxRectangle width="100" height="47" as="alternateBounds"/>
                    </mxGeometry>
                </mxCell>
                <mxCell id="314" value="Delinquent_ID" style="connectable=0;recursiveResize=0;strokeColor=inherit;fillColor=none;align=left;whiteSpace=wrap;html=1;" parent="312" vertex="1">
                    <mxGeometry x="100" width="100" height="47" as="geometry">
                        <mxRectangle width="100" height="47" as="alternateBounds"/>
                    </mxGeometry>
                </mxCell>
                <mxCell id="315" value="Anrede" style="connectable=0;recursiveResize=0;strokeColor=inherit;fillColor=none;align=left;whiteSpace=wrap;html=1;" parent="312" vertex="1">
                    <mxGeometry x="200" width="100" height="47" as="geometry">
                        <mxRectangle width="100" height="47" as="alternateBounds"/>
                    </mxGeometry>
                </mxCell>
                <mxCell id="316" value="Delinquent" style="connectable=0;recursiveResize=0;strokeColor=inherit;fillColor=none;align=left;whiteSpace=wrap;html=1;" parent="312" vertex="1">
                    <mxGeometry x="300" width="100" height="47" as="geometry">
                        <mxRectangle width="100" height="47" as="alternateBounds"/>
                    </mxGeometry>
                </mxCell>
                <mxCell id="317" value="Geburtsdatum" style="connectable=0;recursiveResize=0;strokeColor=inherit;fillColor=none;align=left;whiteSpace=wrap;html=1;" parent="312" vertex="1">
                    <mxGeometry x="400" width="100" height="47" as="geometry">
                        <mxRectangle width="100" height="47" as="alternateBounds"/>
                    </mxGeometry>
                </mxCell>
                <mxCell id="318" value="&lt;u&gt;Delikt&lt;/u&gt;" style="connectable=0;recursiveResize=0;strokeColor=inherit;fillColor=none;align=left;whiteSpace=wrap;html=1;" parent="312" vertex="1">
                    <mxGeometry x="500" width="100" height="47" as="geometry">
                        <mxRectangle width="100" height="47" as="alternateBounds"/>
                    </mxGeometry>
                </mxCell>
                <mxCell id="319" value="Datum" style="connectable=0;recursiveResize=0;strokeColor=inherit;fillColor=none;align=left;whiteSpace=wrap;html=1;" parent="312" vertex="1">
                    <mxGeometry x="600" width="100" height="47" as="geometry">
                        <mxRectangle width="100" height="47" as="alternateBounds"/>
                    </mxGeometry>
                </mxCell>
                <mxCell id="320" value="&lt;u&gt;Dokument&lt;/u&gt;" style="connectable=0;recursiveResize=0;strokeColor=inherit;fillColor=none;align=left;whiteSpace=wrap;html=1;" parent="312" vertex="1">
                    <mxGeometry x="700" width="100" height="47" as="geometry">
                        <mxRectangle width="100" height="47" as="alternateBounds"/>
                    </mxGeometry>
                </mxCell>
                <mxCell id="321" value="Bearbeiter_Name" style="connectable=0;recursiveResize=0;strokeColor=inherit;fillColor=none;align=left;whiteSpace=wrap;html=1;" parent="312" vertex="1">
                    <mxGeometry x="800" width="100" height="47" as="geometry">
                        <mxRectangle width="100" height="47" as="alternateBounds"/>
                    </mxGeometry>
                </mxCell>
                <mxCell id="322" value="Bearbeiter_Vorname" style="connectable=0;recursiveResize=0;strokeColor=inherit;fillColor=none;align=left;whiteSpace=wrap;html=1;" parent="312" vertex="1">
                    <mxGeometry x="900" width="120" height="47" as="geometry">
                        <mxRectangle width="120" height="47" as="alternateBounds"/>
                    </mxGeometry>
                </mxCell>
                <mxCell id="323" style="shape=tableRow;horizontal=0;startSize=0;swimlaneHead=0;swimlaneBody=0;top=0;left=0;bottom=0;right=0;dropTarget=0;collapsible=0;recursiveResize=0;expand=0;fontStyle=0;fillColor=none;strokeColor=inherit;" parent="311" vertex="1">
                    <mxGeometry y="47" width="1020" height="48" as="geometry"/>
                </mxCell>
                <mxCell id="324" value="301" style="connectable=0;recursiveResize=0;strokeColor=inherit;fillColor=none;align=left;whiteSpace=wrap;html=1;" parent="323" vertex="1">
                    <mxGeometry width="100" height="48" as="geometry">
                        <mxRectangle width="100" height="48" as="alternateBounds"/>
                    </mxGeometry>
                </mxCell>
                <mxCell id="325" value="5645" style="connectable=0;recursiveResize=0;strokeColor=inherit;fillColor=none;align=left;whiteSpace=wrap;html=1;" parent="323" vertex="1">
                    <mxGeometry x="100" width="100" height="48" as="geometry">
                        <mxRectangle width="100" height="48" as="alternateBounds"/>
                    </mxGeometry>
                </mxCell>
                <mxCell id="326" value="Herr" style="connectable=0;recursiveResize=0;strokeColor=inherit;fillColor=none;align=left;whiteSpace=wrap;html=1;" parent="323" vertex="1">
                    <mxGeometry x="200" width="100" height="48" as="geometry">
                        <mxRectangle width="100" height="48" as="alternateBounds"/>
                    </mxGeometry>
                </mxCell>
                <mxCell id="327" value="xxx xxxx xxxxx" style="connectable=0;recursiveResize=0;strokeColor=inherit;fillColor=none;align=left;whiteSpace=wrap;html=1;" parent="323" vertex="1">
                    <mxGeometry x="300" width="100" height="48" as="geometry">
                        <mxRectangle width="100" height="48" as="alternateBounds"/>
                    </mxGeometry>
                </mxCell>
                <mxCell id="328" value="28.02.1970" style="connectable=0;recursiveResize=0;strokeColor=inherit;fillColor=none;align=left;whiteSpace=wrap;html=1;" parent="323" vertex="1">
                    <mxGeometry x="400" width="100" height="48" as="geometry">
                        <mxRectangle width="100" height="48" as="alternateBounds"/>
                    </mxGeometry>
                </mxCell>
                <mxCell id="329" value="Raub" style="connectable=0;recursiveResize=0;strokeColor=inherit;fillColor=none;align=left;whiteSpace=wrap;html=1;" parent="323" vertex="1">
                    <mxGeometry x="500" width="100" height="48" as="geometry">
                        <mxRectangle width="100" height="48" as="alternateBounds"/>
                    </mxGeometry>
                </mxCell>
                <mxCell id="330" value="02.04.2017" style="connectable=0;recursiveResize=0;strokeColor=inherit;fillColor=none;align=left;whiteSpace=wrap;html=1;" parent="323" vertex="1">
                    <mxGeometry x="600" width="100" height="48" as="geometry">
                        <mxRectangle width="100" height="48" as="alternateBounds"/>
                    </mxGeometry>
                </mxCell>
                <mxCell id="331" value="Perso" style="connectable=0;recursiveResize=0;strokeColor=inherit;fillColor=none;align=left;whiteSpace=wrap;html=1;" parent="323" vertex="1">
                    <mxGeometry x="700" width="100" height="48" as="geometry">
                        <mxRectangle width="100" height="48" as="alternateBounds"/>
                    </mxGeometry>
                </mxCell>
                <mxCell id="332" value="Hansen" style="connectable=0;recursiveResize=0;strokeColor=inherit;fillColor=none;align=left;whiteSpace=wrap;html=1;" parent="323" vertex="1">
                    <mxGeometry x="800" width="100" height="48" as="geometry">
                        <mxRectangle width="100" height="48" as="alternateBounds"/>
                    </mxGeometry>
                </mxCell>
                <mxCell id="333" value="Klaus" style="connectable=0;recursiveResize=0;strokeColor=inherit;fillColor=none;align=left;whiteSpace=wrap;html=1;" parent="323" vertex="1">
                    <mxGeometry x="900" width="120" height="48" as="geometry">
                        <mxRectangle width="120" height="48" as="alternateBounds"/>
                    </mxGeometry>
                </mxCell>
                <mxCell id="334" style="shape=tableRow;horizontal=0;startSize=0;swimlaneHead=0;swimlaneBody=0;top=0;left=0;bottom=0;right=0;dropTarget=0;collapsible=0;recursiveResize=0;expand=0;fontStyle=0;fillColor=none;strokeColor=inherit;" parent="311" vertex="1">
                    <mxGeometry y="95" width="1020" height="47" as="geometry"/>
                </mxCell>
                <mxCell id="335" value="&lt;span style=&quot;color: rgb(0, 0, 0);&quot;&gt;301&lt;/span&gt;" style="connectable=0;recursiveResize=0;strokeColor=inherit;fillColor=none;align=left;whiteSpace=wrap;html=1;" parent="334" vertex="1">
                    <mxGeometry width="100" height="47" as="geometry">
                        <mxRectangle width="100" height="47" as="alternateBounds"/>
                    </mxGeometry>
                </mxCell>
                <mxCell id="336" value="&lt;span style=&quot;color: rgb(0, 0, 0);&quot;&gt;5645&lt;/span&gt;" style="connectable=0;recursiveResize=0;strokeColor=inherit;fillColor=none;align=left;whiteSpace=wrap;html=1;" parent="334" vertex="1">
                    <mxGeometry x="100" width="100" height="47" as="geometry">
                        <mxRectangle width="100" height="47" as="alternateBounds"/>
                    </mxGeometry>
                </mxCell>
                <mxCell id="337" value="&lt;span style=&quot;color: rgb(0, 0, 0);&quot;&gt;Herr&lt;/span&gt;" style="connectable=0;recursiveResize=0;strokeColor=inherit;fillColor=none;align=left;whiteSpace=wrap;html=1;" parent="334" vertex="1">
                    <mxGeometry x="200" width="100" height="47" as="geometry">
                        <mxRectangle width="100" height="47" as="alternateBounds"/>
                    </mxGeometry>
                </mxCell>
                <mxCell id="338" value="&lt;span style=&quot;color: rgb(0, 0, 0);&quot;&gt;xxx xxxx xxxxx&lt;/span&gt;" style="connectable=0;recursiveResize=0;strokeColor=inherit;fillColor=none;align=left;whiteSpace=wrap;html=1;" parent="334" vertex="1">
                    <mxGeometry x="300" width="100" height="47" as="geometry">
                        <mxRectangle width="100" height="47" as="alternateBounds"/>
                    </mxGeometry>
                </mxCell>
                <mxCell id="339" value="&lt;span style=&quot;color: rgb(0, 0, 0);&quot;&gt;28.02.1970&lt;/span&gt;" style="connectable=0;recursiveResize=0;strokeColor=inherit;fillColor=none;align=left;whiteSpace=wrap;html=1;" parent="334" vertex="1">
                    <mxGeometry x="400" width="100" height="47" as="geometry">
                        <mxRectangle width="100" height="47" as="alternateBounds"/>
                    </mxGeometry>
                </mxCell>
                <mxCell id="340" value="&lt;span style=&quot;color: rgb(0, 0, 0);&quot;&gt;Raub&lt;/span&gt;" style="connectable=0;recursiveResize=0;strokeColor=inherit;fillColor=none;align=left;whiteSpace=wrap;html=1;" parent="334" vertex="1">
                    <mxGeometry x="500" width="100" height="47" as="geometry">
                        <mxRectangle width="100" height="47" as="alternateBounds"/>
                    </mxGeometry>
                </mxCell>
                <mxCell id="341" value="&lt;span style=&quot;color: rgb(0, 0, 0);&quot;&gt;02.04.2017&lt;/span&gt;" style="connectable=0;recursiveResize=0;strokeColor=inherit;fillColor=none;align=left;whiteSpace=wrap;html=1;" parent="334" vertex="1">
                    <mxGeometry x="600" width="100" height="47" as="geometry">
                        <mxRectangle width="100" height="47" as="alternateBounds"/>
                    </mxGeometry>
                </mxCell>
                <mxCell id="342" value="&lt;span style=&quot;color: rgb(0, 0, 0);&quot;&gt;&amp;nbsp;Fahrerlaubnis&lt;/span&gt;" style="connectable=0;recursiveResize=0;strokeColor=inherit;fillColor=none;align=left;whiteSpace=wrap;html=1;" parent="334" vertex="1">
                    <mxGeometry x="700" width="100" height="47" as="geometry">
                        <mxRectangle width="100" height="47" as="alternateBounds"/>
                    </mxGeometry>
                </mxCell>
                <mxCell id="343" value="&lt;span style=&quot;color: rgb(0, 0, 0);&quot;&gt;Hansen&lt;/span&gt;" style="connectable=0;recursiveResize=0;strokeColor=inherit;fillColor=none;align=left;whiteSpace=wrap;html=1;" parent="334" vertex="1">
                    <mxGeometry x="800" width="100" height="47" as="geometry">
                        <mxRectangle width="100" height="47" as="alternateBounds"/>
                    </mxGeometry>
                </mxCell>
                <mxCell id="344" value="Klaus" style="connectable=0;recursiveResize=0;strokeColor=inherit;fillColor=none;align=left;whiteSpace=wrap;html=1;" parent="334" vertex="1">
                    <mxGeometry x="900" width="120" height="47" as="geometry">
                        <mxRectangle width="120" height="47" as="alternateBounds"/>
                    </mxGeometry>
                </mxCell>
                <mxCell id="345" style="shape=tableRow;horizontal=0;startSize=0;swimlaneHead=0;swimlaneBody=0;top=0;left=0;bottom=0;right=0;dropTarget=0;collapsible=0;recursiveResize=0;expand=0;fontStyle=0;fillColor=none;strokeColor=inherit;" parent="311" vertex="1">
                    <mxGeometry y="142" width="1020" height="47" as="geometry"/>
                </mxCell>
                <mxCell id="346" value="302" style="connectable=0;recursiveResize=0;strokeColor=inherit;fillColor=none;align=left;whiteSpace=wrap;html=1;" parent="345" vertex="1">
                    <mxGeometry width="100" height="47" as="geometry">
                        <mxRectangle width="100" height="47" as="alternateBounds"/>
                    </mxGeometry>
                </mxCell>
                <mxCell id="347" value="1213" style="connectable=0;recursiveResize=0;strokeColor=inherit;fillColor=none;align=left;whiteSpace=wrap;html=1;" parent="345" vertex="1">
                    <mxGeometry x="100" width="100" height="47" as="geometry">
                        <mxRectangle width="100" height="47" as="alternateBounds"/>
                    </mxGeometry>
                </mxCell>
                <mxCell id="348" value="Herr" style="connectable=0;recursiveResize=0;strokeColor=inherit;fillColor=none;align=left;whiteSpace=wrap;html=1;" parent="345" vertex="1">
                    <mxGeometry x="200" width="100" height="47" as="geometry">
                        <mxRectangle width="100" height="47" as="alternateBounds"/>
                    </mxGeometry>
                </mxCell>
                <mxCell id="349" value="xxx xxx xxxxx" style="connectable=0;recursiveResize=0;strokeColor=inherit;fillColor=none;align=left;whiteSpace=wrap;html=1;" parent="345" vertex="1">
                    <mxGeometry x="300" width="100" height="47" as="geometry">
                        <mxRectangle width="100" height="47" as="alternateBounds"/>
                    </mxGeometry>
                </mxCell>
                <mxCell id="350" value="06.06.2000" style="connectable=0;recursiveResize=0;strokeColor=inherit;fillColor=none;align=left;whiteSpace=wrap;html=1;" parent="345" vertex="1">
                    <mxGeometry x="400" width="100" height="47" as="geometry">
                        <mxRectangle width="100" height="47" as="alternateBounds"/>
                    </mxGeometry>
                </mxCell>
                <mxCell id="351" value="Drogen" style="connectable=0;recursiveResize=0;strokeColor=inherit;fillColor=none;align=left;whiteSpace=wrap;html=1;" parent="345" vertex="1">
                    <mxGeometry x="500" width="100" height="47" as="geometry">
                        <mxRectangle width="100" height="47" as="alternateBounds"/>
                    </mxGeometry>
                </mxCell>
                <mxCell id="352" value="02.02.2014" style="connectable=0;recursiveResize=0;strokeColor=inherit;fillColor=none;align=left;whiteSpace=wrap;html=1;" parent="345" vertex="1">
                    <mxGeometry x="600" width="100" height="47" as="geometry">
                        <mxRectangle width="100" height="47" as="alternateBounds"/>
                    </mxGeometry>
                </mxCell>
                <mxCell id="353" value="Perso" style="connectable=0;recursiveResize=0;strokeColor=inherit;fillColor=none;align=left;whiteSpace=wrap;html=1;" parent="345" vertex="1">
                    <mxGeometry x="700" width="100" height="47" as="geometry">
                        <mxRectangle width="100" height="47" as="alternateBounds"/>
                    </mxGeometry>
                </mxCell>
                <mxCell id="354" value="Müller" style="connectable=0;recursiveResize=0;strokeColor=inherit;fillColor=none;align=left;whiteSpace=wrap;html=1;" parent="345" vertex="1">
                    <mxGeometry x="800" width="100" height="47" as="geometry">
                        <mxRectangle width="100" height="47" as="alternateBounds"/>
                    </mxGeometry>
                </mxCell>
                <mxCell id="355" value="Marcel" style="connectable=0;recursiveResize=0;strokeColor=inherit;fillColor=none;align=left;whiteSpace=wrap;html=1;" parent="345" vertex="1">
                    <mxGeometry x="900" width="120" height="47" as="geometry">
                        <mxRectangle width="120" height="47" as="alternateBounds"/>
                    </mxGeometry>
                </mxCell>
                <mxCell id="356" style="shape=tableRow;horizontal=0;startSize=0;swimlaneHead=0;swimlaneBody=0;top=0;left=0;bottom=0;right=0;dropTarget=0;collapsible=0;recursiveResize=0;expand=0;fontStyle=0;fillColor=none;strokeColor=inherit;" parent="311" vertex="1">
                    <mxGeometry y="189" width="1020" height="47" as="geometry"/>
                </mxCell>
                <mxCell id="357" value="303" style="connectable=0;recursiveResize=0;strokeColor=inherit;fillColor=none;align=left;whiteSpace=wrap;html=1;" parent="356" vertex="1">
                    <mxGeometry width="100" height="47" as="geometry">
                        <mxRectangle width="100" height="47" as="alternateBounds"/>
                    </mxGeometry>
                </mxCell>
                <mxCell id="358" value="7887" style="connectable=0;recursiveResize=0;strokeColor=inherit;fillColor=none;align=left;whiteSpace=wrap;html=1;" parent="356" vertex="1">
                    <mxGeometry x="100" width="100" height="47" as="geometry">
                        <mxRectangle width="100" height="47" as="alternateBounds"/>
                    </mxGeometry>
                </mxCell>
                <mxCell id="359" value="Herr" style="connectable=0;recursiveResize=0;strokeColor=inherit;fillColor=none;align=left;whiteSpace=wrap;html=1;" parent="356" vertex="1">
                    <mxGeometry x="200" width="100" height="47" as="geometry">
                        <mxRectangle width="100" height="47" as="alternateBounds"/>
                    </mxGeometry>
                </mxCell>
                <mxCell id="360" value="xxxx xx" style="connectable=0;recursiveResize=0;strokeColor=inherit;fillColor=none;align=left;whiteSpace=wrap;html=1;" parent="356" vertex="1">
                    <mxGeometry x="300" width="100" height="47" as="geometry">
                        <mxRectangle width="100" height="47" as="alternateBounds"/>
                    </mxGeometry>
                </mxCell>
                <mxCell id="361" value="01.07.1988" style="connectable=0;recursiveResize=0;strokeColor=inherit;fillColor=none;align=left;whiteSpace=wrap;html=1;" parent="356" vertex="1">
                    <mxGeometry x="400" width="100" height="47" as="geometry">
                        <mxRectangle width="100" height="47" as="alternateBounds"/>
                    </mxGeometry>
                </mxCell>
                <mxCell id="362" value="Fahrerflucht" style="connectable=0;recursiveResize=0;strokeColor=inherit;fillColor=none;align=left;whiteSpace=wrap;html=1;" parent="356" vertex="1">
                    <mxGeometry x="500" width="100" height="47" as="geometry">
                        <mxRectangle width="100" height="47" as="alternateBounds"/>
                    </mxGeometry>
                </mxCell>
                <mxCell id="363" value="30.03.2017" style="connectable=0;recursiveResize=0;strokeColor=inherit;fillColor=none;align=left;whiteSpace=wrap;html=1;" parent="356" vertex="1">
                    <mxGeometry x="600" width="100" height="47" as="geometry">
                        <mxRectangle width="100" height="47" as="alternateBounds"/>
                    </mxGeometry>
                </mxCell>
                <mxCell id="364" value="Reisepass" style="connectable=0;recursiveResize=0;strokeColor=inherit;fillColor=none;align=left;whiteSpace=wrap;html=1;" parent="356" vertex="1">
                    <mxGeometry x="700" width="100" height="47" as="geometry">
                        <mxRectangle width="100" height="47" as="alternateBounds"/>
                    </mxGeometry>
                </mxCell>
                <mxCell id="365" value="&lt;br&gt;&lt;span style=&quot;color: rgb(0, 0, 0); font-family: Helvetica; font-size: 12px; font-style: normal; font-variant-ligatures: normal; font-variant-caps: normal; font-weight: 400; letter-spacing: normal; orphans: 2; text-align: left; text-indent: 0px; text-transform: none; widows: 2; word-spacing: 0px; -webkit-text-stroke-width: 0px; white-space: normal; background-color: rgb(251, 251, 251); text-decoration-thickness: initial; text-decoration-style: initial; text-decoration-color: initial; float: none; display: inline !important;&quot;&gt;Hansen&lt;/span&gt;&lt;div&gt;&lt;br/&gt;&lt;/div&gt;" style="connectable=0;recursiveResize=0;strokeColor=inherit;fillColor=none;align=left;whiteSpace=wrap;html=1;" parent="356" vertex="1">
                    <mxGeometry x="800" width="100" height="47" as="geometry">
                        <mxRectangle width="100" height="47" as="alternateBounds"/>
                    </mxGeometry>
                </mxCell>
                <mxCell id="366" value="Klaus" style="connectable=0;recursiveResize=0;strokeColor=inherit;fillColor=none;align=left;whiteSpace=wrap;html=1;" parent="356" vertex="1">
                    <mxGeometry x="900" width="120" height="47" as="geometry">
                        <mxRectangle width="120" height="47" as="alternateBounds"/>
                    </mxGeometry>
                </mxCell>
                <mxCell id="367" style="shape=tableRow;horizontal=0;startSize=0;swimlaneHead=0;swimlaneBody=0;top=0;left=0;bottom=0;right=0;dropTarget=0;collapsible=0;recursiveResize=0;expand=0;fontStyle=0;fillColor=none;strokeColor=inherit;" parent="311" vertex="1">
                    <mxGeometry y="236" width="1020" height="47" as="geometry"/>
                </mxCell>
                <mxCell id="368" value="303" style="connectable=0;recursiveResize=0;strokeColor=inherit;fillColor=none;align=left;whiteSpace=wrap;html=1;" parent="367" vertex="1">
                    <mxGeometry width="100" height="47" as="geometry">
                        <mxRectangle width="100" height="47" as="alternateBounds"/>
                    </mxGeometry>
                </mxCell>
                <mxCell id="369" value="7887" style="connectable=0;recursiveResize=0;strokeColor=inherit;fillColor=none;align=left;whiteSpace=wrap;html=1;" parent="367" vertex="1">
                    <mxGeometry x="100" width="100" height="47" as="geometry">
                        <mxRectangle width="100" height="47" as="alternateBounds"/>
                    </mxGeometry>
                </mxCell>
                <mxCell id="370" value="Herr" style="connectable=0;recursiveResize=0;strokeColor=inherit;fillColor=none;align=left;whiteSpace=wrap;html=1;" parent="367" vertex="1">
                    <mxGeometry x="200" width="100" height="47" as="geometry">
                        <mxRectangle width="100" height="47" as="alternateBounds"/>
                    </mxGeometry>
                </mxCell>
                <mxCell id="371" value="xxxx xx" style="connectable=0;recursiveResize=0;strokeColor=inherit;fillColor=none;align=left;whiteSpace=wrap;html=1;" parent="367" vertex="1">
                    <mxGeometry x="300" width="100" height="47" as="geometry">
                        <mxRectangle width="100" height="47" as="alternateBounds"/>
                    </mxGeometry>
                </mxCell>
                <mxCell id="372" value="01.07.1988" style="connectable=0;recursiveResize=0;strokeColor=inherit;fillColor=none;align=left;whiteSpace=wrap;html=1;" parent="367" vertex="1">
                    <mxGeometry x="400" width="100" height="47" as="geometry">
                        <mxRectangle width="100" height="47" as="alternateBounds"/>
                    </mxGeometry>
                </mxCell>
                <mxCell id="373" value="Fahrerflucht" style="connectable=0;recursiveResize=0;strokeColor=inherit;fillColor=none;align=left;whiteSpace=wrap;html=1;" parent="367" vertex="1">
                    <mxGeometry x="500" width="100" height="47" as="geometry">
                        <mxRectangle width="100" height="47" as="alternateBounds"/>
                    </mxGeometry>
                </mxCell>
                <mxCell id="374" value="30.03.2017" style="connectable=0;recursiveResize=0;strokeColor=inherit;fillColor=none;align=left;whiteSpace=wrap;html=1;" parent="367" vertex="1">
                    <mxGeometry x="600" width="100" height="47" as="geometry">
                        <mxRectangle width="100" height="47" as="alternateBounds"/>
                    </mxGeometry>
                </mxCell>
                <mxCell id="375" value="&amp;nbsp;Fahrerlaubnis" style="connectable=0;recursiveResize=0;strokeColor=inherit;fillColor=none;align=left;whiteSpace=wrap;html=1;" parent="367" vertex="1">
                    <mxGeometry x="700" width="100" height="47" as="geometry">
                        <mxRectangle width="100" height="47" as="alternateBounds"/>
                    </mxGeometry>
                </mxCell>
                <mxCell id="376" value="&lt;br&gt;&lt;span style=&quot;color: rgb(0, 0, 0); font-family: Helvetica; font-size: 12px; font-style: normal; font-variant-ligatures: normal; font-variant-caps: normal; font-weight: 400; letter-spacing: normal; orphans: 2; text-align: left; text-indent: 0px; text-transform: none; widows: 2; word-spacing: 0px; -webkit-text-stroke-width: 0px; white-space: normal; background-color: rgb(251, 251, 251); text-decoration-thickness: initial; text-decoration-style: initial; text-decoration-color: initial; float: none; display: inline !important;&quot;&gt;Hansen&lt;/span&gt;&lt;div&gt;&lt;br/&gt;&lt;/div&gt;" style="connectable=0;recursiveResize=0;strokeColor=inherit;fillColor=none;align=left;whiteSpace=wrap;html=1;" parent="367" vertex="1">
                    <mxGeometry x="800" width="100" height="47" as="geometry">
                        <mxRectangle width="100" height="47" as="alternateBounds"/>
                    </mxGeometry>
                </mxCell>
                <mxCell id="377" value="Klaus" style="connectable=0;recursiveResize=0;strokeColor=inherit;fillColor=none;align=left;whiteSpace=wrap;html=1;" parent="367" vertex="1">
                    <mxGeometry x="900" width="120" height="47" as="geometry">
                        <mxRectangle width="120" height="47" as="alternateBounds"/>
                    </mxGeometry>
                </mxCell>
                <mxCell id="378" style="shape=tableRow;horizontal=0;startSize=0;swimlaneHead=0;swimlaneBody=0;top=0;left=0;bottom=0;right=0;dropTarget=0;collapsible=0;recursiveResize=0;expand=0;fontStyle=0;fillColor=none;strokeColor=inherit;" parent="311" vertex="1">
                    <mxGeometry y="283" width="1020" height="47" as="geometry"/>
                </mxCell>
                <mxCell id="379" value="303" style="connectable=0;recursiveResize=0;strokeColor=inherit;fillColor=none;align=left;whiteSpace=wrap;html=1;" parent="378" vertex="1">
                    <mxGeometry width="100" height="47" as="geometry">
                        <mxRectangle width="100" height="47" as="alternateBounds"/>
                    </mxGeometry>
                </mxCell>
                <mxCell id="380" value="7887" style="connectable=0;recursiveResize=0;strokeColor=inherit;fillColor=none;align=left;whiteSpace=wrap;html=1;" parent="378" vertex="1">
                    <mxGeometry x="100" width="100" height="47" as="geometry">
                        <mxRectangle width="100" height="47" as="alternateBounds"/>
                    </mxGeometry>
                </mxCell>
                <mxCell id="381" value="Herr" style="connectable=0;recursiveResize=0;strokeColor=inherit;fillColor=none;align=left;whiteSpace=wrap;html=1;" parent="378" vertex="1">
                    <mxGeometry x="200" width="100" height="47" as="geometry">
                        <mxRectangle width="100" height="47" as="alternateBounds"/>
                    </mxGeometry>
                </mxCell>
                <mxCell id="382" value="xxxx xx" style="connectable=0;recursiveResize=0;strokeColor=inherit;fillColor=none;align=left;whiteSpace=wrap;html=1;" parent="378" vertex="1">
                    <mxGeometry x="300" width="100" height="47" as="geometry">
                        <mxRectangle width="100" height="47" as="alternateBounds"/>
                    </mxGeometry>
                </mxCell>
                <mxCell id="383" value="01.07.1988" style="connectable=0;recursiveResize=0;strokeColor=inherit;fillColor=none;align=left;whiteSpace=wrap;html=1;" parent="378" vertex="1">
                    <mxGeometry x="400" width="100" height="47" as="geometry">
                        <mxRectangle width="100" height="47" as="alternateBounds"/>
                    </mxGeometry>
                </mxCell>
                <mxCell id="384" value="&amp;nbsp;Drogen" style="connectable=0;recursiveResize=0;strokeColor=inherit;fillColor=none;align=left;whiteSpace=wrap;html=1;" parent="378" vertex="1">
                    <mxGeometry x="500" width="100" height="47" as="geometry">
                        <mxRectangle width="100" height="47" as="alternateBounds"/>
                    </mxGeometry>
                </mxCell>
                <mxCell id="385" value="30.03.2017" style="connectable=0;recursiveResize=0;strokeColor=inherit;fillColor=none;align=left;whiteSpace=wrap;html=1;" parent="378" vertex="1">
                    <mxGeometry x="600" width="100" height="47" as="geometry">
                        <mxRectangle width="100" height="47" as="alternateBounds"/>
                    </mxGeometry>
                </mxCell>
                <mxCell id="386" value="Reisepass" style="connectable=0;recursiveResize=0;strokeColor=inherit;fillColor=none;align=left;whiteSpace=wrap;html=1;" parent="378" vertex="1">
                    <mxGeometry x="700" width="100" height="47" as="geometry">
                        <mxRectangle width="100" height="47" as="alternateBounds"/>
                    </mxGeometry>
                </mxCell>
                <mxCell id="387" value="&lt;br&gt;&lt;span style=&quot;color: rgb(0, 0, 0); font-family: Helvetica; font-size: 12px; font-style: normal; font-variant-ligatures: normal; font-variant-caps: normal; font-weight: 400; letter-spacing: normal; orphans: 2; text-align: left; text-indent: 0px; text-transform: none; widows: 2; word-spacing: 0px; -webkit-text-stroke-width: 0px; white-space: normal; background-color: rgb(251, 251, 251); text-decoration-thickness: initial; text-decoration-style: initial; text-decoration-color: initial; float: none; display: inline !important;&quot;&gt;Hansen&lt;/span&gt;&lt;div&gt;&lt;br/&gt;&lt;/div&gt;" style="connectable=0;recursiveResize=0;strokeColor=inherit;fillColor=none;align=left;whiteSpace=wrap;html=1;" parent="378" vertex="1">
                    <mxGeometry x="800" width="100" height="47" as="geometry">
                        <mxRectangle width="100" height="47" as="alternateBounds"/>
                    </mxGeometry>
                </mxCell>
                <mxCell id="388" value="Klaus" style="connectable=0;recursiveResize=0;strokeColor=inherit;fillColor=none;align=left;whiteSpace=wrap;html=1;" parent="378" vertex="1">
                    <mxGeometry x="900" width="120" height="47" as="geometry">
                        <mxRectangle width="120" height="47" as="alternateBounds"/>
                    </mxGeometry>
                </mxCell>
                <mxCell id="389" style="shape=tableRow;horizontal=0;startSize=0;swimlaneHead=0;swimlaneBody=0;top=0;left=0;bottom=0;right=0;dropTarget=0;collapsible=0;recursiveResize=0;expand=0;fontStyle=0;fillColor=none;strokeColor=inherit;" parent="311" vertex="1">
                    <mxGeometry y="330" width="1020" height="47" as="geometry"/>
                </mxCell>
                <mxCell id="390" value="303" style="connectable=0;recursiveResize=0;strokeColor=inherit;fillColor=none;align=left;whiteSpace=wrap;html=1;" parent="389" vertex="1">
                    <mxGeometry width="100" height="47" as="geometry">
                        <mxRectangle width="100" height="47" as="alternateBounds"/>
                    </mxGeometry>
                </mxCell>
                <mxCell id="391" value="7887" style="connectable=0;recursiveResize=0;strokeColor=inherit;fillColor=none;align=left;whiteSpace=wrap;html=1;" parent="389" vertex="1">
                    <mxGeometry x="100" width="100" height="47" as="geometry">
                        <mxRectangle width="100" height="47" as="alternateBounds"/>
                    </mxGeometry>
                </mxCell>
                <mxCell id="392" value="Herr" style="connectable=0;recursiveResize=0;strokeColor=inherit;fillColor=none;align=left;whiteSpace=wrap;html=1;" parent="389" vertex="1">
                    <mxGeometry x="200" width="100" height="47" as="geometry">
                        <mxRectangle width="100" height="47" as="alternateBounds"/>
                    </mxGeometry>
                </mxCell>
                <mxCell id="393" value="xxxx xx" style="connectable=0;recursiveResize=0;strokeColor=inherit;fillColor=none;align=left;whiteSpace=wrap;html=1;" parent="389" vertex="1">
                    <mxGeometry x="300" width="100" height="47" as="geometry">
                        <mxRectangle width="100" height="47" as="alternateBounds"/>
                    </mxGeometry>
                </mxCell>
                <mxCell id="394" value="01.07.1988" style="connectable=0;recursiveResize=0;strokeColor=inherit;fillColor=none;align=left;whiteSpace=wrap;html=1;" parent="389" vertex="1">
                    <mxGeometry x="400" width="100" height="47" as="geometry">
                        <mxRectangle width="100" height="47" as="alternateBounds"/>
                    </mxGeometry>
                </mxCell>
                <mxCell id="395" value="&amp;nbsp;Drogen" style="connectable=0;recursiveResize=0;strokeColor=inherit;fillColor=none;align=left;whiteSpace=wrap;html=1;" parent="389" vertex="1">
                    <mxGeometry x="500" width="100" height="47" as="geometry">
                        <mxRectangle width="100" height="47" as="alternateBounds"/>
                    </mxGeometry>
                </mxCell>
                <mxCell id="396" value="30.03.2017" style="connectable=0;recursiveResize=0;strokeColor=inherit;fillColor=none;align=left;whiteSpace=wrap;html=1;" parent="389" vertex="1">
                    <mxGeometry x="600" width="100" height="47" as="geometry">
                        <mxRectangle width="100" height="47" as="alternateBounds"/>
                    </mxGeometry>
                </mxCell>
                <mxCell id="397" value="&amp;nbsp;Fahrerlaubnis" style="connectable=0;recursiveResize=0;strokeColor=inherit;fillColor=none;align=left;whiteSpace=wrap;html=1;" parent="389" vertex="1">
                    <mxGeometry x="700" width="100" height="47" as="geometry">
                        <mxRectangle width="100" height="47" as="alternateBounds"/>
                    </mxGeometry>
                </mxCell>
                <mxCell id="398" value="&lt;br&gt;&lt;span style=&quot;color: rgb(0, 0, 0); font-family: Helvetica; font-size: 12px; font-style: normal; font-variant-ligatures: normal; font-variant-caps: normal; font-weight: 400; letter-spacing: normal; orphans: 2; text-align: left; text-indent: 0px; text-transform: none; widows: 2; word-spacing: 0px; -webkit-text-stroke-width: 0px; white-space: normal; background-color: rgb(251, 251, 251); text-decoration-thickness: initial; text-decoration-style: initial; text-decoration-color: initial; float: none; display: inline !important;&quot;&gt;Hansen&lt;/span&gt;&lt;div&gt;&lt;br/&gt;&lt;/div&gt;" style="connectable=0;recursiveResize=0;strokeColor=inherit;fillColor=none;align=left;whiteSpace=wrap;html=1;" parent="389" vertex="1">
                    <mxGeometry x="800" width="100" height="47" as="geometry">
                        <mxRectangle width="100" height="47" as="alternateBounds"/>
                    </mxGeometry>
                </mxCell>
                <mxCell id="399" value="Klaus" style="connectable=0;recursiveResize=0;strokeColor=inherit;fillColor=none;align=left;whiteSpace=wrap;html=1;" parent="389" vertex="1">
                    <mxGeometry x="900" width="120" height="47" as="geometry">
                        <mxRectangle width="120" height="47" as="alternateBounds"/>
                    </mxGeometry>
                </mxCell>
                <mxCell id="400" style="shape=tableRow;horizontal=0;startSize=0;swimlaneHead=0;swimlaneBody=0;top=0;left=0;bottom=0;right=0;dropTarget=0;collapsible=0;recursiveResize=0;expand=0;fontStyle=0;fillColor=none;strokeColor=inherit;" parent="311" vertex="1">
                    <mxGeometry y="377" width="1020" height="47" as="geometry"/>
                </mxCell>
                <mxCell id="401" value="304" style="connectable=0;recursiveResize=0;strokeColor=inherit;fillColor=none;align=left;whiteSpace=wrap;html=1;" parent="400" vertex="1">
                    <mxGeometry width="100" height="47" as="geometry">
                        <mxRectangle width="100" height="47" as="alternateBounds"/>
                    </mxGeometry>
                </mxCell>
                <mxCell id="402" value="4545" style="connectable=0;recursiveResize=0;strokeColor=inherit;fillColor=none;align=left;whiteSpace=wrap;html=1;" parent="400" vertex="1">
                    <mxGeometry x="100" width="100" height="47" as="geometry">
                        <mxRectangle width="100" height="47" as="alternateBounds"/>
                    </mxGeometry>
                </mxCell>
                <mxCell id="403" value="Frau" style="connectable=0;recursiveResize=0;strokeColor=inherit;fillColor=none;align=left;whiteSpace=wrap;html=1;" parent="400" vertex="1">
                    <mxGeometry x="200" width="100" height="47" as="geometry">
                        <mxRectangle width="100" height="47" as="alternateBounds"/>
                    </mxGeometry>
                </mxCell>
                <mxCell id="404" value="x xxx" style="connectable=0;recursiveResize=0;strokeColor=inherit;fillColor=none;align=left;whiteSpace=wrap;html=1;" parent="400" vertex="1">
                    <mxGeometry x="300" width="100" height="47" as="geometry">
                        <mxRectangle width="100" height="47" as="alternateBounds"/>
                    </mxGeometry>
                </mxCell>
                <mxCell id="405" value="16.08.1991" style="connectable=0;recursiveResize=0;strokeColor=inherit;fillColor=none;align=left;whiteSpace=wrap;html=1;" parent="400" vertex="1">
                    <mxGeometry x="400" width="100" height="47" as="geometry">
                        <mxRectangle width="100" height="47" as="alternateBounds"/>
                    </mxGeometry>
                </mxCell>
                <mxCell id="406" value="Drogen" style="connectable=0;recursiveResize=0;strokeColor=inherit;fillColor=none;align=left;whiteSpace=wrap;html=1;" parent="400" vertex="1">
                    <mxGeometry x="500" width="100" height="47" as="geometry">
                        <mxRectangle width="100" height="47" as="alternateBounds"/>
                    </mxGeometry>
                </mxCell>
                <mxCell id="407" value="12.04.2017" style="connectable=0;recursiveResize=0;strokeColor=inherit;fillColor=none;align=left;whiteSpace=wrap;html=1;" parent="400" vertex="1">
                    <mxGeometry x="600" width="100" height="47" as="geometry">
                        <mxRectangle width="100" height="47" as="alternateBounds"/>
                    </mxGeometry>
                </mxCell>
                <mxCell id="408" value="Perso" style="connectable=0;recursiveResize=0;strokeColor=inherit;fillColor=none;align=left;whiteSpace=wrap;html=1;" parent="400" vertex="1">
                    <mxGeometry x="700" width="100" height="47" as="geometry">
                        <mxRectangle width="100" height="47" as="alternateBounds"/>
                    </mxGeometry>
                </mxCell>
                <mxCell id="409" value="Wagner" style="connectable=0;recursiveResize=0;strokeColor=inherit;fillColor=none;align=left;whiteSpace=wrap;html=1;" parent="400" vertex="1">
                    <mxGeometry x="800" width="100" height="47" as="geometry">
                        <mxRectangle width="100" height="47" as="alternateBounds"/>
                    </mxGeometry>
                </mxCell>
                <mxCell id="410" value="Wolfgang" style="connectable=0;recursiveResize=0;strokeColor=inherit;fillColor=none;align=left;whiteSpace=wrap;html=1;" parent="400" vertex="1">
                    <mxGeometry x="900" width="120" height="47" as="geometry">
                        <mxRectangle width="120" height="47" as="alternateBounds"/>
                    </mxGeometry>
                </mxCell>
                <mxCell id="411" style="shape=tableRow;horizontal=0;startSize=0;swimlaneHead=0;swimlaneBody=0;top=0;left=0;bottom=0;right=0;dropTarget=0;collapsible=0;recursiveResize=0;expand=0;fontStyle=0;fillColor=none;strokeColor=inherit;" parent="311" vertex="1">
                    <mxGeometry y="424" width="1020" height="47" as="geometry"/>
                </mxCell>
                <mxCell id="412" value="305" style="connectable=0;recursiveResize=0;strokeColor=inherit;fillColor=none;align=left;whiteSpace=wrap;html=1;" parent="411" vertex="1">
                    <mxGeometry width="100" height="47" as="geometry">
                        <mxRectangle width="100" height="47" as="alternateBounds"/>
                    </mxGeometry>
                </mxCell>
                <mxCell id="413" value="1213" style="connectable=0;recursiveResize=0;strokeColor=inherit;fillColor=none;align=left;whiteSpace=wrap;html=1;" parent="411" vertex="1">
                    <mxGeometry x="100" width="100" height="47" as="geometry">
                        <mxRectangle width="100" height="47" as="alternateBounds"/>
                    </mxGeometry>
                </mxCell>
                <mxCell id="414" value="Herr" style="connectable=0;recursiveResize=0;strokeColor=inherit;fillColor=none;align=left;whiteSpace=wrap;html=1;" parent="411" vertex="1">
                    <mxGeometry x="200" width="100" height="47" as="geometry">
                        <mxRectangle width="100" height="47" as="alternateBounds"/>
                    </mxGeometry>
                </mxCell>
                <mxCell id="415" value="x x" style="connectable=0;recursiveResize=0;strokeColor=inherit;fillColor=none;align=left;whiteSpace=wrap;html=1;" parent="411" vertex="1">
                    <mxGeometry x="300" width="100" height="47" as="geometry">
                        <mxRectangle width="100" height="47" as="alternateBounds"/>
                    </mxGeometry>
                </mxCell>
                <mxCell id="416" value="06.06.2000" style="connectable=0;recursiveResize=0;strokeColor=inherit;fillColor=none;align=left;whiteSpace=wrap;html=1;" parent="411" vertex="1">
                    <mxGeometry x="400" width="100" height="47" as="geometry">
                        <mxRectangle width="100" height="47" as="alternateBounds"/>
                    </mxGeometry>
                </mxCell>
                <mxCell id="417" value="Körperverletzung" style="connectable=0;recursiveResize=0;strokeColor=inherit;fillColor=none;align=left;whiteSpace=wrap;html=1;" parent="411" vertex="1">
                    <mxGeometry x="500" width="100" height="47" as="geometry">
                        <mxRectangle width="100" height="47" as="alternateBounds"/>
                    </mxGeometry>
                </mxCell>
                <mxCell id="418" value="08.03.2015" style="connectable=0;recursiveResize=0;strokeColor=inherit;fillColor=none;align=left;whiteSpace=wrap;html=1;" parent="411" vertex="1">
                    <mxGeometry x="600" width="100" height="47" as="geometry">
                        <mxRectangle width="100" height="47" as="alternateBounds"/>
                    </mxGeometry>
                </mxCell>
                <mxCell id="419" value="Perso" style="connectable=0;recursiveResize=0;strokeColor=inherit;fillColor=none;align=left;whiteSpace=wrap;html=1;" parent="411" vertex="1">
                    <mxGeometry x="700" width="100" height="47" as="geometry">
                        <mxRectangle width="100" height="47" as="alternateBounds"/>
                    </mxGeometry>
                </mxCell>
                <mxCell id="420" value="&lt;br&gt;&lt;span style=&quot;color: rgb(0, 0, 0); font-family: Helvetica; font-size: 12px; font-style: normal; font-variant-ligatures: normal; font-variant-caps: normal; font-weight: 400; letter-spacing: normal; orphans: 2; text-align: left; text-indent: 0px; text-transform: none; widows: 2; word-spacing: 0px; -webkit-text-stroke-width: 0px; white-space: normal; background-color: rgb(251, 251, 251); text-decoration-thickness: initial; text-decoration-style: initial; text-decoration-color: initial; float: none; display: inline !important;&quot;&gt;Hansen&lt;/span&gt;&lt;div&gt;&lt;br/&gt;&lt;/div&gt;" style="connectable=0;recursiveResize=0;strokeColor=inherit;fillColor=none;align=left;whiteSpace=wrap;html=1;" parent="411" vertex="1">
                    <mxGeometry x="800" width="100" height="47" as="geometry">
                        <mxRectangle width="100" height="47" as="alternateBounds"/>
                    </mxGeometry>
                </mxCell>
                <mxCell id="421" value="Klaus" style="connectable=0;recursiveResize=0;strokeColor=inherit;fillColor=none;align=left;whiteSpace=wrap;html=1;" parent="411" vertex="1">
                    <mxGeometry x="900" width="120" height="47" as="geometry">
                        <mxRectangle width="120" height="47" as="alternateBounds"/>
                    </mxGeometry>
                </mxCell>
                <mxCell id="446" value="" style="childLayout=tableLayout;recursiveResize=0;shadow=0;fillColor=none;fontSize=12;" parent="1" vertex="1">
                    <mxGeometry x="580" y="1310" width="220" height="236" as="geometry"/>
                </mxCell>
                <mxCell id="447" value="" style="shape=tableRow;horizontal=0;startSize=0;swimlaneHead=0;swimlaneBody=0;top=0;left=0;bottom=0;right=0;dropTarget=0;collapsible=0;recursiveResize=0;expand=0;fontStyle=0;fillColor=none;strokeColor=inherit;" parent="446" vertex="1">
                    <mxGeometry width="220" height="47" as="geometry"/>
                </mxCell>
                <mxCell id="527" value="&lt;u&gt;Delikt_ID&lt;/u&gt;" style="connectable=0;recursiveResize=0;strokeColor=inherit;fillColor=none;align=left;whiteSpace=wrap;html=1;" parent="447" vertex="1">
                    <mxGeometry width="110" height="47" as="geometry">
                        <mxRectangle width="110" height="47" as="alternateBounds"/>
                    </mxGeometry>
                </mxCell>
                <mxCell id="450" value="Delikt" style="connectable=0;recursiveResize=0;strokeColor=inherit;fillColor=none;align=left;whiteSpace=wrap;html=1;" parent="447" vertex="1">
                    <mxGeometry x="110" width="110" height="47" as="geometry">
                        <mxRectangle width="110" height="47" as="alternateBounds"/>
                    </mxGeometry>
                </mxCell>
                <mxCell id="455" style="shape=tableRow;horizontal=0;startSize=0;swimlaneHead=0;swimlaneBody=0;top=0;left=0;bottom=0;right=0;dropTarget=0;collapsible=0;recursiveResize=0;expand=0;fontStyle=0;fillColor=none;strokeColor=inherit;" parent="446" vertex="1">
                    <mxGeometry y="47" width="220" height="48" as="geometry"/>
                </mxCell>
                <mxCell id="528" value="1" style="connectable=0;recursiveResize=0;strokeColor=inherit;fillColor=none;align=left;whiteSpace=wrap;html=1;" parent="455" vertex="1">
                    <mxGeometry width="110" height="48" as="geometry">
                        <mxRectangle width="110" height="48" as="alternateBounds"/>
                    </mxGeometry>
                </mxCell>
                <mxCell id="458" value="Raub" style="connectable=0;recursiveResize=0;strokeColor=inherit;fillColor=none;align=left;whiteSpace=wrap;html=1;" parent="455" vertex="1">
                    <mxGeometry x="110" width="110" height="48" as="geometry">
                        <mxRectangle width="110" height="48" as="alternateBounds"/>
                    </mxGeometry>
                </mxCell>
                <mxCell id="463" style="shape=tableRow;horizontal=0;startSize=0;swimlaneHead=0;swimlaneBody=0;top=0;left=0;bottom=0;right=0;dropTarget=0;collapsible=0;recursiveResize=0;expand=0;fontStyle=0;fillColor=none;strokeColor=inherit;" parent="446" vertex="1">
                    <mxGeometry y="95" width="220" height="47" as="geometry"/>
                </mxCell>
                <mxCell id="529" value="2" style="connectable=0;recursiveResize=0;strokeColor=inherit;fillColor=none;align=left;whiteSpace=wrap;html=1;" parent="463" vertex="1">
                    <mxGeometry width="110" height="47" as="geometry">
                        <mxRectangle width="110" height="47" as="alternateBounds"/>
                    </mxGeometry>
                </mxCell>
                <mxCell id="466" value="&lt;span style=&quot;color: rgb(0, 0, 0);&quot;&gt;Drogen&lt;/span&gt;" style="connectable=0;recursiveResize=0;strokeColor=inherit;fillColor=none;align=left;whiteSpace=wrap;html=1;" parent="463" vertex="1">
                    <mxGeometry x="110" width="110" height="47" as="geometry">
                        <mxRectangle width="110" height="47" as="alternateBounds"/>
                    </mxGeometry>
                </mxCell>
                <mxCell id="479" style="shape=tableRow;horizontal=0;startSize=0;swimlaneHead=0;swimlaneBody=0;top=0;left=0;bottom=0;right=0;dropTarget=0;collapsible=0;recursiveResize=0;expand=0;fontStyle=0;fillColor=none;strokeColor=inherit;" parent="446" vertex="1">
                    <mxGeometry y="142" width="220" height="47" as="geometry"/>
                </mxCell>
                <mxCell id="531" value="3" style="connectable=0;recursiveResize=0;strokeColor=inherit;fillColor=none;align=left;whiteSpace=wrap;html=1;" parent="479" vertex="1">
                    <mxGeometry width="110" height="47" as="geometry">
                        <mxRectangle width="110" height="47" as="alternateBounds"/>
                    </mxGeometry>
                </mxCell>
                <mxCell id="482" value="Fahrerflucht" style="connectable=0;recursiveResize=0;strokeColor=inherit;fillColor=none;align=left;whiteSpace=wrap;html=1;" parent="479" vertex="1">
                    <mxGeometry x="110" width="110" height="47" as="geometry">
                        <mxRectangle width="110" height="47" as="alternateBounds"/>
                    </mxGeometry>
                </mxCell>
                <mxCell id="519" style="shape=tableRow;horizontal=0;startSize=0;swimlaneHead=0;swimlaneBody=0;top=0;left=0;bottom=0;right=0;dropTarget=0;collapsible=0;recursiveResize=0;expand=0;fontStyle=0;fillColor=none;strokeColor=inherit;" parent="446" vertex="1">
                    <mxGeometry y="189" width="220" height="47" as="geometry"/>
                </mxCell>
                <mxCell id="536" value="4" style="connectable=0;recursiveResize=0;strokeColor=inherit;fillColor=none;align=left;whiteSpace=wrap;html=1;" parent="519" vertex="1">
                    <mxGeometry width="110" height="47" as="geometry">
                        <mxRectangle width="110" height="47" as="alternateBounds"/>
                    </mxGeometry>
                </mxCell>
                <mxCell id="522" value="Körperverletzung" style="connectable=0;recursiveResize=0;strokeColor=inherit;fillColor=none;align=left;whiteSpace=wrap;html=1;" parent="519" vertex="1">
                    <mxGeometry x="110" width="110" height="47" as="geometry">
                        <mxRectangle width="110" height="47" as="alternateBounds"/>
                    </mxGeometry>
                </mxCell>
                <mxCell id="537" value="&lt;b&gt;&lt;font style=&quot;font-size: 16px;&quot;&gt;Tabelle: Delinquent&lt;/font&gt;&lt;/b&gt;" style="text;html=1;align=center;verticalAlign=middle;whiteSpace=wrap;rounded=0;" parent="1" vertex="1">
                    <mxGeometry x="130" y="940" width="240" height="30" as="geometry"/>
                </mxCell>
                <mxCell id="538" value="&lt;b&gt;&lt;font style=&quot;font-size: 16px;&quot;&gt;Tabelle: Vorgang&lt;/font&gt;&lt;/b&gt;" style="text;html=1;align=center;verticalAlign=middle;whiteSpace=wrap;rounded=0;" parent="1" vertex="1">
                    <mxGeometry x="520" y="940" width="240" height="30" as="geometry"/>
                </mxCell>
                <mxCell id="539" value="&lt;b&gt;&lt;font style=&quot;font-size: 16px;&quot;&gt;Tabelle: Delikt&lt;/font&gt;&lt;/b&gt;" style="text;html=1;align=center;verticalAlign=middle;whiteSpace=wrap;rounded=0;" parent="1" vertex="1">
                    <mxGeometry x="580" y="1280" width="240" height="30" as="geometry"/>
                </mxCell>
                <mxCell id="540" value="" style="childLayout=tableLayout;recursiveResize=0;shadow=0;fillColor=none;fontSize=12;" parent="1" vertex="1">
                    <mxGeometry x="1120" y="1340" width="330" height="189" as="geometry"/>
                </mxCell>
                <mxCell id="541" value="" style="shape=tableRow;horizontal=0;startSize=0;swimlaneHead=0;swimlaneBody=0;top=0;left=0;bottom=0;right=0;dropTarget=0;collapsible=0;recursiveResize=0;expand=0;fontStyle=0;fillColor=none;strokeColor=inherit;" parent="540" vertex="1">
                    <mxGeometry width="330" height="47" as="geometry"/>
                </mxCell>
                <mxCell id="542" value="&lt;u&gt;Bearbeiter_ID&lt;/u&gt;" style="connectable=0;recursiveResize=0;strokeColor=inherit;fillColor=none;align=left;whiteSpace=wrap;html=1;" parent="541" vertex="1">
                    <mxGeometry width="110" height="47" as="geometry">
                        <mxRectangle width="110" height="47" as="alternateBounds"/>
                    </mxGeometry>
                </mxCell>
                <mxCell id="543" value="Name" style="connectable=0;recursiveResize=0;strokeColor=inherit;fillColor=none;align=left;whiteSpace=wrap;html=1;" parent="541" vertex="1">
                    <mxGeometry x="110" width="110" height="47" as="geometry">
                        <mxRectangle width="110" height="47" as="alternateBounds"/>
                    </mxGeometry>
                </mxCell>
                <mxCell id="557" value="Vorname" style="connectable=0;recursiveResize=0;strokeColor=inherit;fillColor=none;align=left;whiteSpace=wrap;html=1;" parent="541" vertex="1">
                    <mxGeometry x="220" width="110" height="47" as="geometry">
                        <mxRectangle width="110" height="47" as="alternateBounds"/>
                    </mxGeometry>
                </mxCell>
                <mxCell id="544" style="shape=tableRow;horizontal=0;startSize=0;swimlaneHead=0;swimlaneBody=0;top=0;left=0;bottom=0;right=0;dropTarget=0;collapsible=0;recursiveResize=0;expand=0;fontStyle=0;fillColor=none;strokeColor=inherit;" parent="540" vertex="1">
                    <mxGeometry y="47" width="330" height="48" as="geometry"/>
                </mxCell>
                <mxCell id="545" value="1" style="connectable=0;recursiveResize=0;strokeColor=inherit;fillColor=none;align=left;whiteSpace=wrap;html=1;" parent="544" vertex="1">
                    <mxGeometry width="110" height="48" as="geometry">
                        <mxRectangle width="110" height="48" as="alternateBounds"/>
                    </mxGeometry>
                </mxCell>
                <mxCell id="546" value="&lt;span style=&quot;color: rgb(0, 0, 0);&quot;&gt;Hansen&lt;/span&gt;" style="connectable=0;recursiveResize=0;strokeColor=inherit;fillColor=none;align=left;whiteSpace=wrap;html=1;" parent="544" vertex="1">
                    <mxGeometry x="110" width="110" height="48" as="geometry">
                        <mxRectangle width="110" height="48" as="alternateBounds"/>
                    </mxGeometry>
                </mxCell>
                <mxCell id="558" value="&lt;span style=&quot;color: rgb(0, 0, 0);&quot;&gt;Klaus&lt;/span&gt;" style="connectable=0;recursiveResize=0;strokeColor=inherit;fillColor=none;align=left;whiteSpace=wrap;html=1;" parent="544" vertex="1">
                    <mxGeometry x="220" width="110" height="48" as="geometry">
                        <mxRectangle width="110" height="48" as="alternateBounds"/>
                    </mxGeometry>
                </mxCell>
                <mxCell id="547" style="shape=tableRow;horizontal=0;startSize=0;swimlaneHead=0;swimlaneBody=0;top=0;left=0;bottom=0;right=0;dropTarget=0;collapsible=0;recursiveResize=0;expand=0;fontStyle=0;fillColor=none;strokeColor=inherit;" parent="540" vertex="1">
                    <mxGeometry y="95" width="330" height="47" as="geometry"/>
                </mxCell>
                <mxCell id="548" value="2" style="connectable=0;recursiveResize=0;strokeColor=inherit;fillColor=none;align=left;whiteSpace=wrap;html=1;" parent="547" vertex="1">
                    <mxGeometry width="110" height="47" as="geometry">
                        <mxRectangle width="110" height="47" as="alternateBounds"/>
                    </mxGeometry>
                </mxCell>
                <mxCell id="549" value="&lt;span style=&quot;color: rgb(0, 0, 0);&quot;&gt;Müller&lt;/span&gt;" style="connectable=0;recursiveResize=0;strokeColor=inherit;fillColor=none;align=left;whiteSpace=wrap;html=1;" parent="547" vertex="1">
                    <mxGeometry x="110" width="110" height="47" as="geometry">
                        <mxRectangle width="110" height="47" as="alternateBounds"/>
                    </mxGeometry>
                </mxCell>
                <mxCell id="559" value="&lt;span style=&quot;color: rgb(0, 0, 0);&quot;&gt;Marcel&lt;/span&gt;" style="connectable=0;recursiveResize=0;strokeColor=inherit;fillColor=none;align=left;whiteSpace=wrap;html=1;" parent="547" vertex="1">
                    <mxGeometry x="220" width="110" height="47" as="geometry">
                        <mxRectangle width="110" height="47" as="alternateBounds"/>
                    </mxGeometry>
                </mxCell>
                <mxCell id="550" style="shape=tableRow;horizontal=0;startSize=0;swimlaneHead=0;swimlaneBody=0;top=0;left=0;bottom=0;right=0;dropTarget=0;collapsible=0;recursiveResize=0;expand=0;fontStyle=0;fillColor=none;strokeColor=inherit;" parent="540" vertex="1">
                    <mxGeometry y="142" width="330" height="47" as="geometry"/>
                </mxCell>
                <mxCell id="551" value="3" style="connectable=0;recursiveResize=0;strokeColor=inherit;fillColor=none;align=left;whiteSpace=wrap;html=1;" parent="550" vertex="1">
                    <mxGeometry width="110" height="47" as="geometry">
                        <mxRectangle width="110" height="47" as="alternateBounds"/>
                    </mxGeometry>
                </mxCell>
                <mxCell id="552" value="&lt;span style=&quot;color: rgb(0, 0, 0);&quot;&gt;Wagner&lt;/span&gt;" style="connectable=0;recursiveResize=0;strokeColor=inherit;fillColor=none;align=left;whiteSpace=wrap;html=1;" parent="550" vertex="1">
                    <mxGeometry x="110" width="110" height="47" as="geometry">
                        <mxRectangle width="110" height="47" as="alternateBounds"/>
                    </mxGeometry>
                </mxCell>
                <mxCell id="560" value="&lt;span style=&quot;color: rgb(0, 0, 0);&quot;&gt;Wolfgang&lt;/span&gt;" style="connectable=0;recursiveResize=0;strokeColor=inherit;fillColor=none;align=left;whiteSpace=wrap;html=1;" parent="550" vertex="1">
                    <mxGeometry x="220" width="110" height="47" as="geometry">
                        <mxRectangle width="110" height="47" as="alternateBounds"/>
                    </mxGeometry>
                </mxCell>
                <mxCell id="556" value="&lt;b&gt;&lt;font style=&quot;font-size: 16px;&quot;&gt;Tabelle: Bearbeiter&lt;/font&gt;&lt;/b&gt;" style="text;html=1;align=center;verticalAlign=middle;whiteSpace=wrap;rounded=0;" parent="1" vertex="1">
                    <mxGeometry x="1120" y="1310" width="240" height="30" as="geometry"/>
                </mxCell>
                <mxCell id="562" value="" style="childLayout=tableLayout;recursiveResize=0;shadow=0;fillColor=none;fontSize=12;" parent="1" vertex="1">
                    <mxGeometry x="870" y="1310" width="220" height="189" as="geometry"/>
                </mxCell>
                <mxCell id="563" value="" style="shape=tableRow;horizontal=0;startSize=0;swimlaneHead=0;swimlaneBody=0;top=0;left=0;bottom=0;right=0;dropTarget=0;collapsible=0;recursiveResize=0;expand=0;fontStyle=0;fillColor=none;strokeColor=inherit;" parent="562" vertex="1">
                    <mxGeometry width="220" height="47" as="geometry"/>
                </mxCell>
                <mxCell id="564" value="&lt;u&gt;Dokumnet_ID&lt;/u&gt;" style="connectable=0;recursiveResize=0;strokeColor=inherit;fillColor=none;align=left;whiteSpace=wrap;html=1;" parent="563" vertex="1">
                    <mxGeometry width="110" height="47" as="geometry">
                        <mxRectangle width="110" height="47" as="alternateBounds"/>
                    </mxGeometry>
                </mxCell>
                <mxCell id="565" value="Dokument" style="connectable=0;recursiveResize=0;strokeColor=inherit;fillColor=none;align=left;whiteSpace=wrap;html=1;" parent="563" vertex="1">
                    <mxGeometry x="110" width="110" height="47" as="geometry">
                        <mxRectangle width="110" height="47" as="alternateBounds"/>
                    </mxGeometry>
                </mxCell>
                <mxCell id="566" style="shape=tableRow;horizontal=0;startSize=0;swimlaneHead=0;swimlaneBody=0;top=0;left=0;bottom=0;right=0;dropTarget=0;collapsible=0;recursiveResize=0;expand=0;fontStyle=0;fillColor=none;strokeColor=inherit;" parent="562" vertex="1">
                    <mxGeometry y="47" width="220" height="48" as="geometry"/>
                </mxCell>
                <mxCell id="567" value="1" style="connectable=0;recursiveResize=0;strokeColor=inherit;fillColor=none;align=left;whiteSpace=wrap;html=1;" parent="566" vertex="1">
                    <mxGeometry width="110" height="48" as="geometry">
                        <mxRectangle width="110" height="48" as="alternateBounds"/>
                    </mxGeometry>
                </mxCell>
                <mxCell id="568" value="Perso" style="connectable=0;recursiveResize=0;strokeColor=inherit;fillColor=none;align=left;whiteSpace=wrap;html=1;" parent="566" vertex="1">
                    <mxGeometry x="110" width="110" height="48" as="geometry">
                        <mxRectangle width="110" height="48" as="alternateBounds"/>
                    </mxGeometry>
                </mxCell>
                <mxCell id="569" style="shape=tableRow;horizontal=0;startSize=0;swimlaneHead=0;swimlaneBody=0;top=0;left=0;bottom=0;right=0;dropTarget=0;collapsible=0;recursiveResize=0;expand=0;fontStyle=0;fillColor=none;strokeColor=inherit;" parent="562" vertex="1">
                    <mxGeometry y="95" width="220" height="47" as="geometry"/>
                </mxCell>
                <mxCell id="570" value="2" style="connectable=0;recursiveResize=0;strokeColor=inherit;fillColor=none;align=left;whiteSpace=wrap;html=1;" parent="569" vertex="1">
                    <mxGeometry width="110" height="47" as="geometry">
                        <mxRectangle width="110" height="47" as="alternateBounds"/>
                    </mxGeometry>
                </mxCell>
                <mxCell id="571" value="&lt;span style=&quot;color: rgb(0, 0, 0);&quot;&gt;Fahrerlaubnis&lt;/span&gt;" style="connectable=0;recursiveResize=0;strokeColor=inherit;fillColor=none;align=left;whiteSpace=wrap;html=1;" parent="569" vertex="1">
                    <mxGeometry x="110" width="110" height="47" as="geometry">
                        <mxRectangle width="110" height="47" as="alternateBounds"/>
                    </mxGeometry>
                </mxCell>
                <mxCell id="572" style="shape=tableRow;horizontal=0;startSize=0;swimlaneHead=0;swimlaneBody=0;top=0;left=0;bottom=0;right=0;dropTarget=0;collapsible=0;recursiveResize=0;expand=0;fontStyle=0;fillColor=none;strokeColor=inherit;" parent="562" vertex="1">
                    <mxGeometry y="142" width="220" height="47" as="geometry"/>
                </mxCell>
                <mxCell id="573" value="3" style="connectable=0;recursiveResize=0;strokeColor=inherit;fillColor=none;align=left;whiteSpace=wrap;html=1;" parent="572" vertex="1">
                    <mxGeometry width="110" height="47" as="geometry">
                        <mxRectangle width="110" height="47" as="alternateBounds"/>
                    </mxGeometry>
                </mxCell>
                <mxCell id="574" value="Reisepass" style="connectable=0;recursiveResize=0;strokeColor=inherit;fillColor=none;align=left;whiteSpace=wrap;html=1;" parent="572" vertex="1">
                    <mxGeometry x="110" width="110" height="47" as="geometry">
                        <mxRectangle width="110" height="47" as="alternateBounds"/>
                    </mxGeometry>
                </mxCell>
                <mxCell id="578" value="&lt;b&gt;&lt;font style=&quot;font-size: 16px;&quot;&gt;Tabelle: Dokument&lt;/font&gt;&lt;/b&gt;" style="text;html=1;align=center;verticalAlign=middle;whiteSpace=wrap;rounded=0;" parent="1" vertex="1">
                    <mxGeometry x="870" y="1280" width="240" height="30" as="geometry"/>
                </mxCell>
                <mxCell id="579" value="" style="childLayout=tableLayout;recursiveResize=0;shadow=0;fillColor=none;fontSize=12;" parent="1" vertex="1">
                    <mxGeometry x="330" y="1310" width="220" height="377" as="geometry"/>
                </mxCell>
                <mxCell id="580" value="" style="shape=tableRow;horizontal=0;startSize=0;swimlaneHead=0;swimlaneBody=0;top=0;left=0;bottom=0;right=0;dropTarget=0;collapsible=0;recursiveResize=0;expand=0;fontStyle=0;fillColor=none;strokeColor=inherit;" parent="579" vertex="1">
                    <mxGeometry width="220" height="47" as="geometry"/>
                </mxCell>
                <mxCell id="593" value="&lt;u&gt;Vorgang_ID&lt;/u&gt;" style="connectable=0;recursiveResize=0;strokeColor=inherit;fillColor=none;align=left;whiteSpace=wrap;html=1;" parent="580" vertex="1">
                    <mxGeometry width="110" height="47" as="geometry">
                        <mxRectangle width="110" height="47" as="alternateBounds"/>
                    </mxGeometry>
                </mxCell>
                <mxCell id="581" value="&lt;u&gt;Dokumnet_ID&lt;/u&gt;" style="connectable=0;recursiveResize=0;strokeColor=inherit;fillColor=none;align=left;whiteSpace=wrap;html=1;" parent="580" vertex="1">
                    <mxGeometry x="110" width="110" height="47" as="geometry">
                        <mxRectangle width="110" height="47" as="alternateBounds"/>
                    </mxGeometry>
                </mxCell>
                <mxCell id="583" style="shape=tableRow;horizontal=0;startSize=0;swimlaneHead=0;swimlaneBody=0;top=0;left=0;bottom=0;right=0;dropTarget=0;collapsible=0;recursiveResize=0;expand=0;fontStyle=0;fillColor=none;strokeColor=inherit;" parent="579" vertex="1">
                    <mxGeometry y="47" width="220" height="48" as="geometry"/>
                </mxCell>
                <mxCell id="594" value="&lt;span style=&quot;color: rgb(0, 0, 0);&quot;&gt;301&lt;/span&gt;" style="connectable=0;recursiveResize=0;strokeColor=inherit;fillColor=none;align=left;whiteSpace=wrap;html=1;" parent="583" vertex="1">
                    <mxGeometry width="110" height="48" as="geometry">
                        <mxRectangle width="110" height="48" as="alternateBounds"/>
                    </mxGeometry>
                </mxCell>
                <mxCell id="584" value="1" style="connectable=0;recursiveResize=0;strokeColor=inherit;fillColor=none;align=left;whiteSpace=wrap;html=1;" parent="583" vertex="1">
                    <mxGeometry x="110" width="110" height="48" as="geometry">
                        <mxRectangle width="110" height="48" as="alternateBounds"/>
                    </mxGeometry>
                </mxCell>
                <mxCell id="586" style="shape=tableRow;horizontal=0;startSize=0;swimlaneHead=0;swimlaneBody=0;top=0;left=0;bottom=0;right=0;dropTarget=0;collapsible=0;recursiveResize=0;expand=0;fontStyle=0;fillColor=none;strokeColor=inherit;" parent="579" vertex="1">
                    <mxGeometry y="95" width="220" height="47" as="geometry"/>
                </mxCell>
                <mxCell id="595" value="&lt;span style=&quot;color: rgb(0, 0, 0);&quot;&gt;301&lt;/span&gt;" style="connectable=0;recursiveResize=0;strokeColor=inherit;fillColor=none;align=left;whiteSpace=wrap;html=1;" parent="586" vertex="1">
                    <mxGeometry width="110" height="47" as="geometry">
                        <mxRectangle width="110" height="47" as="alternateBounds"/>
                    </mxGeometry>
                </mxCell>
                <mxCell id="587" value="2" style="connectable=0;recursiveResize=0;strokeColor=inherit;fillColor=none;align=left;whiteSpace=wrap;html=1;" parent="586" vertex="1">
                    <mxGeometry x="110" width="110" height="47" as="geometry">
                        <mxRectangle width="110" height="47" as="alternateBounds"/>
                    </mxGeometry>
                </mxCell>
                <mxCell id="589" style="shape=tableRow;horizontal=0;startSize=0;swimlaneHead=0;swimlaneBody=0;top=0;left=0;bottom=0;right=0;dropTarget=0;collapsible=0;recursiveResize=0;expand=0;fontStyle=0;fillColor=none;strokeColor=inherit;" parent="579" vertex="1">
                    <mxGeometry y="142" width="220" height="47" as="geometry"/>
                </mxCell>
                <mxCell id="596" value="302&lt;span style=&quot;white-space: pre;&quot;&gt;&#x9;&lt;/span&gt;" style="connectable=0;recursiveResize=0;strokeColor=inherit;fillColor=none;align=left;whiteSpace=wrap;html=1;" parent="589" vertex="1">
                    <mxGeometry width="110" height="47" as="geometry">
                        <mxRectangle width="110" height="47" as="alternateBounds"/>
                    </mxGeometry>
                </mxCell>
                <mxCell id="590" value="1" style="connectable=0;recursiveResize=0;strokeColor=inherit;fillColor=none;align=left;whiteSpace=wrap;html=1;" parent="589" vertex="1">
                    <mxGeometry x="110" width="110" height="47" as="geometry">
                        <mxRectangle width="110" height="47" as="alternateBounds"/>
                    </mxGeometry>
                </mxCell>
                <mxCell id="598" style="shape=tableRow;horizontal=0;startSize=0;swimlaneHead=0;swimlaneBody=0;top=0;left=0;bottom=0;right=0;dropTarget=0;collapsible=0;recursiveResize=0;expand=0;fontStyle=0;fillColor=none;strokeColor=inherit;" parent="579" vertex="1">
                    <mxGeometry y="189" width="220" height="47" as="geometry"/>
                </mxCell>
                <mxCell id="599" value="303" style="connectable=0;recursiveResize=0;strokeColor=inherit;fillColor=none;align=left;whiteSpace=wrap;html=1;" parent="598" vertex="1">
                    <mxGeometry width="110" height="47" as="geometry">
                        <mxRectangle width="110" height="47" as="alternateBounds"/>
                    </mxGeometry>
                </mxCell>
                <mxCell id="600" value="2" style="connectable=0;recursiveResize=0;strokeColor=inherit;fillColor=none;align=left;whiteSpace=wrap;html=1;" parent="598" vertex="1">
                    <mxGeometry x="110" width="110" height="47" as="geometry">
                        <mxRectangle width="110" height="47" as="alternateBounds"/>
                    </mxGeometry>
                </mxCell>
                <mxCell id="601" style="shape=tableRow;horizontal=0;startSize=0;swimlaneHead=0;swimlaneBody=0;top=0;left=0;bottom=0;right=0;dropTarget=0;collapsible=0;recursiveResize=0;expand=0;fontStyle=0;fillColor=none;strokeColor=inherit;" parent="579" vertex="1">
                    <mxGeometry y="236" width="220" height="47" as="geometry"/>
                </mxCell>
                <mxCell id="602" value="&lt;span style=&quot;color: rgb(0, 0, 0);&quot;&gt;303&lt;/span&gt;" style="connectable=0;recursiveResize=0;strokeColor=inherit;fillColor=none;align=left;whiteSpace=wrap;html=1;" parent="601" vertex="1">
                    <mxGeometry width="110" height="47" as="geometry">
                        <mxRectangle width="110" height="47" as="alternateBounds"/>
                    </mxGeometry>
                </mxCell>
                <mxCell id="603" value="3" style="connectable=0;recursiveResize=0;strokeColor=inherit;fillColor=none;align=left;whiteSpace=wrap;html=1;" parent="601" vertex="1">
                    <mxGeometry x="110" width="110" height="47" as="geometry">
                        <mxRectangle width="110" height="47" as="alternateBounds"/>
                    </mxGeometry>
                </mxCell>
                <mxCell id="604" style="shape=tableRow;horizontal=0;startSize=0;swimlaneHead=0;swimlaneBody=0;top=0;left=0;bottom=0;right=0;dropTarget=0;collapsible=0;recursiveResize=0;expand=0;fontStyle=0;fillColor=none;strokeColor=inherit;" parent="579" vertex="1">
                    <mxGeometry y="283" width="220" height="47" as="geometry"/>
                </mxCell>
                <mxCell id="605" value="&lt;span style=&quot;color: rgb(0, 0, 0);&quot;&gt;304&lt;/span&gt;" style="connectable=0;recursiveResize=0;strokeColor=inherit;fillColor=none;align=left;whiteSpace=wrap;html=1;" parent="604" vertex="1">
                    <mxGeometry width="110" height="47" as="geometry">
                        <mxRectangle width="110" height="47" as="alternateBounds"/>
                    </mxGeometry>
                </mxCell>
                <mxCell id="606" value="1" style="connectable=0;recursiveResize=0;strokeColor=inherit;fillColor=none;align=left;whiteSpace=wrap;html=1;" parent="604" vertex="1">
                    <mxGeometry x="110" width="110" height="47" as="geometry">
                        <mxRectangle width="110" height="47" as="alternateBounds"/>
                    </mxGeometry>
                </mxCell>
                <mxCell id="607" style="shape=tableRow;horizontal=0;startSize=0;swimlaneHead=0;swimlaneBody=0;top=0;left=0;bottom=0;right=0;dropTarget=0;collapsible=0;recursiveResize=0;expand=0;fontStyle=0;fillColor=none;strokeColor=inherit;" parent="579" vertex="1">
                    <mxGeometry y="330" width="220" height="47" as="geometry"/>
                </mxCell>
                <mxCell id="608" value="&lt;span style=&quot;color: rgb(0, 0, 0);&quot;&gt;305&lt;/span&gt;" style="connectable=0;recursiveResize=0;strokeColor=inherit;fillColor=none;align=left;whiteSpace=wrap;html=1;" parent="607" vertex="1">
                    <mxGeometry width="110" height="47" as="geometry">
                        <mxRectangle width="110" height="47" as="alternateBounds"/>
                    </mxGeometry>
                </mxCell>
                <mxCell id="609" value="1" style="connectable=0;recursiveResize=0;strokeColor=inherit;fillColor=none;align=left;whiteSpace=wrap;html=1;" parent="607" vertex="1">
                    <mxGeometry x="110" width="110" height="47" as="geometry">
                        <mxRectangle width="110" height="47" as="alternateBounds"/>
                    </mxGeometry>
                </mxCell>
                <mxCell id="592" value="&lt;b&gt;&lt;font style=&quot;font-size: 16px;&quot;&gt;Tabelle: Vorgang_Dokument&lt;/font&gt;&lt;/b&gt;" style="text;html=1;align=center;verticalAlign=middle;whiteSpace=wrap;rounded=0;" parent="1" vertex="1">
                    <mxGeometry x="330" y="1280" width="240" height="30" as="geometry"/>
                </mxCell>
                <mxCell id="616" value="" style="childLayout=tableLayout;recursiveResize=0;shadow=0;fillColor=none;fontSize=12;" parent="1" vertex="1">
                    <mxGeometry x="60" y="1310" width="220" height="330" as="geometry"/>
                </mxCell>
                <mxCell id="617" value="" style="shape=tableRow;horizontal=0;startSize=0;swimlaneHead=0;swimlaneBody=0;top=0;left=0;bottom=0;right=0;dropTarget=0;collapsible=0;recursiveResize=0;expand=0;fontStyle=0;fillColor=none;strokeColor=inherit;" parent="616" vertex="1">
                    <mxGeometry width="220" height="47" as="geometry"/>
                </mxCell>
                <mxCell id="618" value="&lt;u&gt;Vorgang_ID&lt;/u&gt;" style="connectable=0;recursiveResize=0;strokeColor=inherit;fillColor=none;align=left;whiteSpace=wrap;html=1;" parent="617" vertex="1">
                    <mxGeometry width="110" height="47" as="geometry">
                        <mxRectangle width="110" height="47" as="alternateBounds"/>
                    </mxGeometry>
                </mxCell>
                <mxCell id="619" value="&lt;u&gt;Delikt_ID&lt;/u&gt;" style="connectable=0;recursiveResize=0;strokeColor=inherit;fillColor=none;align=left;whiteSpace=wrap;html=1;" parent="617" vertex="1">
                    <mxGeometry x="110" width="110" height="47" as="geometry">
                        <mxRectangle width="110" height="47" as="alternateBounds"/>
                    </mxGeometry>
                </mxCell>
                <mxCell id="620" style="shape=tableRow;horizontal=0;startSize=0;swimlaneHead=0;swimlaneBody=0;top=0;left=0;bottom=0;right=0;dropTarget=0;collapsible=0;recursiveResize=0;expand=0;fontStyle=0;fillColor=none;strokeColor=inherit;" parent="616" vertex="1">
                    <mxGeometry y="47" width="220" height="48" as="geometry"/>
                </mxCell>
                <mxCell id="621" value="&lt;span style=&quot;color: rgb(0, 0, 0);&quot;&gt;301&lt;/span&gt;" style="connectable=0;recursiveResize=0;strokeColor=inherit;fillColor=none;align=left;whiteSpace=wrap;html=1;" parent="620" vertex="1">
                    <mxGeometry width="110" height="48" as="geometry">
                        <mxRectangle width="110" height="48" as="alternateBounds"/>
                    </mxGeometry>
                </mxCell>
                <mxCell id="622" value="1" style="connectable=0;recursiveResize=0;strokeColor=inherit;fillColor=none;align=left;whiteSpace=wrap;html=1;" parent="620" vertex="1">
                    <mxGeometry x="110" width="110" height="48" as="geometry">
                        <mxRectangle width="110" height="48" as="alternateBounds"/>
                    </mxGeometry>
                </mxCell>
                <mxCell id="626" style="shape=tableRow;horizontal=0;startSize=0;swimlaneHead=0;swimlaneBody=0;top=0;left=0;bottom=0;right=0;dropTarget=0;collapsible=0;recursiveResize=0;expand=0;fontStyle=0;fillColor=none;strokeColor=inherit;" parent="616" vertex="1">
                    <mxGeometry y="95" width="220" height="47" as="geometry"/>
                </mxCell>
                <mxCell id="627" value="302&lt;span style=&quot;white-space: pre;&quot;&gt;&#x9;&lt;/span&gt;" style="connectable=0;recursiveResize=0;strokeColor=inherit;fillColor=none;align=left;whiteSpace=wrap;html=1;" parent="626" vertex="1">
                    <mxGeometry width="110" height="47" as="geometry">
                        <mxRectangle width="110" height="47" as="alternateBounds"/>
                    </mxGeometry>
                </mxCell>
                <mxCell id="628" value="2" style="connectable=0;recursiveResize=0;strokeColor=inherit;fillColor=none;align=left;whiteSpace=wrap;html=1;" parent="626" vertex="1">
                    <mxGeometry x="110" width="110" height="47" as="geometry">
                        <mxRectangle width="110" height="47" as="alternateBounds"/>
                    </mxGeometry>
                </mxCell>
                <mxCell id="629" style="shape=tableRow;horizontal=0;startSize=0;swimlaneHead=0;swimlaneBody=0;top=0;left=0;bottom=0;right=0;dropTarget=0;collapsible=0;recursiveResize=0;expand=0;fontStyle=0;fillColor=none;strokeColor=inherit;" parent="616" vertex="1">
                    <mxGeometry y="142" width="220" height="47" as="geometry"/>
                </mxCell>
                <mxCell id="630" value="303" style="connectable=0;recursiveResize=0;strokeColor=inherit;fillColor=none;align=left;whiteSpace=wrap;html=1;" parent="629" vertex="1">
                    <mxGeometry width="110" height="47" as="geometry">
                        <mxRectangle width="110" height="47" as="alternateBounds"/>
                    </mxGeometry>
                </mxCell>
                <mxCell id="631" value="3" style="connectable=0;recursiveResize=0;strokeColor=inherit;fillColor=none;align=left;whiteSpace=wrap;html=1;" parent="629" vertex="1">
                    <mxGeometry x="110" width="110" height="47" as="geometry">
                        <mxRectangle width="110" height="47" as="alternateBounds"/>
                    </mxGeometry>
                </mxCell>
                <mxCell id="632" style="shape=tableRow;horizontal=0;startSize=0;swimlaneHead=0;swimlaneBody=0;top=0;left=0;bottom=0;right=0;dropTarget=0;collapsible=0;recursiveResize=0;expand=0;fontStyle=0;fillColor=none;strokeColor=inherit;" parent="616" vertex="1">
                    <mxGeometry y="189" width="220" height="47" as="geometry"/>
                </mxCell>
                <mxCell id="633" value="&lt;span style=&quot;color: rgb(0, 0, 0);&quot;&gt;303&lt;/span&gt;" style="connectable=0;recursiveResize=0;strokeColor=inherit;fillColor=none;align=left;whiteSpace=wrap;html=1;" parent="632" vertex="1">
                    <mxGeometry width="110" height="47" as="geometry">
                        <mxRectangle width="110" height="47" as="alternateBounds"/>
                    </mxGeometry>
                </mxCell>
                <mxCell id="634" value="2" style="connectable=0;recursiveResize=0;strokeColor=inherit;fillColor=none;align=left;whiteSpace=wrap;html=1;" parent="632" vertex="1">
                    <mxGeometry x="110" width="110" height="47" as="geometry">
                        <mxRectangle width="110" height="47" as="alternateBounds"/>
                    </mxGeometry>
                </mxCell>
                <mxCell id="635" style="shape=tableRow;horizontal=0;startSize=0;swimlaneHead=0;swimlaneBody=0;top=0;left=0;bottom=0;right=0;dropTarget=0;collapsible=0;recursiveResize=0;expand=0;fontStyle=0;fillColor=none;strokeColor=inherit;" parent="616" vertex="1">
                    <mxGeometry y="236" width="220" height="47" as="geometry"/>
                </mxCell>
                <mxCell id="636" value="&lt;span style=&quot;color: rgb(0, 0, 0);&quot;&gt;304&lt;/span&gt;" style="connectable=0;recursiveResize=0;strokeColor=inherit;fillColor=none;align=left;whiteSpace=wrap;html=1;" parent="635" vertex="1">
                    <mxGeometry width="110" height="47" as="geometry">
                        <mxRectangle width="110" height="47" as="alternateBounds"/>
                    </mxGeometry>
                </mxCell>
                <mxCell id="637" value="2" style="connectable=0;recursiveResize=0;strokeColor=inherit;fillColor=none;align=left;whiteSpace=wrap;html=1;" parent="635" vertex="1">
                    <mxGeometry x="110" width="110" height="47" as="geometry">
                        <mxRectangle width="110" height="47" as="alternateBounds"/>
                    </mxGeometry>
                </mxCell>
                <mxCell id="638" style="shape=tableRow;horizontal=0;startSize=0;swimlaneHead=0;swimlaneBody=0;top=0;left=0;bottom=0;right=0;dropTarget=0;collapsible=0;recursiveResize=0;expand=0;fontStyle=0;fillColor=none;strokeColor=inherit;" parent="616" vertex="1">
                    <mxGeometry y="283" width="220" height="47" as="geometry"/>
                </mxCell>
                <mxCell id="639" value="&lt;span style=&quot;color: rgb(0, 0, 0);&quot;&gt;305&lt;/span&gt;" style="connectable=0;recursiveResize=0;strokeColor=inherit;fillColor=none;align=left;whiteSpace=wrap;html=1;" parent="638" vertex="1">
                    <mxGeometry width="110" height="47" as="geometry">
                        <mxRectangle width="110" height="47" as="alternateBounds"/>
                    </mxGeometry>
                </mxCell>
                <mxCell id="640" value="4" style="connectable=0;recursiveResize=0;strokeColor=inherit;fillColor=none;align=left;whiteSpace=wrap;html=1;" parent="638" vertex="1">
                    <mxGeometry x="110" width="110" height="47" as="geometry">
                        <mxRectangle width="110" height="47" as="alternateBounds"/>
                    </mxGeometry>
                </mxCell>
                <mxCell id="641" value="&lt;b&gt;&lt;font style=&quot;font-size: 16px;&quot;&gt;Tabelle: Vorgang_Delikt&lt;/font&gt;&lt;/b&gt;" style="text;html=1;align=center;verticalAlign=middle;whiteSpace=wrap;rounded=0;" parent="1" vertex="1">
                    <mxGeometry x="60" y="1280" width="240" height="30" as="geometry"/>
                </mxCell>
                <mxCell id="642" value="" style="childLayout=tableLayout;recursiveResize=0;shadow=0;fillColor=none;fontSize=12;" parent="1" vertex="1">
                    <mxGeometry x="940" y="1111" width="220" height="142" as="geometry"/>
                </mxCell>
                <mxCell id="643" value="" style="shape=tableRow;horizontal=0;startSize=0;swimlaneHead=0;swimlaneBody=0;top=0;left=0;bottom=0;right=0;dropTarget=0;collapsible=0;recursiveResize=0;expand=0;fontStyle=0;fillColor=none;strokeColor=inherit;" parent="642" vertex="1">
                    <mxGeometry width="220" height="47" as="geometry"/>
                </mxCell>
                <mxCell id="644" value="&lt;u&gt;Anrede_ID&lt;/u&gt;" style="connectable=0;recursiveResize=0;strokeColor=inherit;fillColor=none;align=left;whiteSpace=wrap;html=1;" parent="643" vertex="1">
                    <mxGeometry width="110" height="47" as="geometry">
                        <mxRectangle width="110" height="47" as="alternateBounds"/>
                    </mxGeometry>
                </mxCell>
                <mxCell id="645" value="Anrede" style="connectable=0;recursiveResize=0;strokeColor=inherit;fillColor=none;align=left;whiteSpace=wrap;html=1;" parent="643" vertex="1">
                    <mxGeometry x="110" width="110" height="47" as="geometry">
                        <mxRectangle width="110" height="47" as="alternateBounds"/>
                    </mxGeometry>
                </mxCell>
                <mxCell id="646" style="shape=tableRow;horizontal=0;startSize=0;swimlaneHead=0;swimlaneBody=0;top=0;left=0;bottom=0;right=0;dropTarget=0;collapsible=0;recursiveResize=0;expand=0;fontStyle=0;fillColor=none;strokeColor=inherit;" parent="642" vertex="1">
                    <mxGeometry y="47" width="220" height="48" as="geometry"/>
                </mxCell>
                <mxCell id="647" value="1" style="connectable=0;recursiveResize=0;strokeColor=inherit;fillColor=none;align=left;whiteSpace=wrap;html=1;" parent="646" vertex="1">
                    <mxGeometry width="110" height="48" as="geometry">
                        <mxRectangle width="110" height="48" as="alternateBounds"/>
                    </mxGeometry>
                </mxCell>
                <mxCell id="648" value="Herr" style="connectable=0;recursiveResize=0;strokeColor=inherit;fillColor=none;align=left;whiteSpace=wrap;html=1;" parent="646" vertex="1">
                    <mxGeometry x="110" width="110" height="48" as="geometry">
                        <mxRectangle width="110" height="48" as="alternateBounds"/>
                    </mxGeometry>
                </mxCell>
                <mxCell id="649" style="shape=tableRow;horizontal=0;startSize=0;swimlaneHead=0;swimlaneBody=0;top=0;left=0;bottom=0;right=0;dropTarget=0;collapsible=0;recursiveResize=0;expand=0;fontStyle=0;fillColor=none;strokeColor=inherit;" parent="642" vertex="1">
                    <mxGeometry y="95" width="220" height="47" as="geometry"/>
                </mxCell>
                <mxCell id="650" value="2" style="connectable=0;recursiveResize=0;strokeColor=inherit;fillColor=none;align=left;whiteSpace=wrap;html=1;" parent="649" vertex="1">
                    <mxGeometry width="110" height="47" as="geometry">
                        <mxRectangle width="110" height="47" as="alternateBounds"/>
                    </mxGeometry>
                </mxCell>
                <mxCell id="651" value="&lt;span style=&quot;color: rgb(0, 0, 0);&quot;&gt;Frau&lt;/span&gt;" style="connectable=0;recursiveResize=0;strokeColor=inherit;fillColor=none;align=left;whiteSpace=wrap;html=1;" parent="649" vertex="1">
                    <mxGeometry x="110" width="110" height="47" as="geometry">
                        <mxRectangle width="110" height="47" as="alternateBounds"/>
                    </mxGeometry>
                </mxCell>
                <mxCell id="655" value="&lt;b&gt;&lt;font style=&quot;font-size: 16px;&quot;&gt;Tabelle: Anrede&lt;/font&gt;&lt;/b&gt;" style="text;html=1;align=center;verticalAlign=middle;whiteSpace=wrap;rounded=0;" parent="1" vertex="1">
                    <mxGeometry x="940" y="1081" width="240" height="30" as="geometry"/>
                </mxCell>
                <mxCell id="656" value="Vorgang" style="shape=table;startSize=30;container=1;collapsible=1;childLayout=tableLayout;fixedRows=1;rowLines=0;fontStyle=1;align=center;resizeLast=1;html=1;" parent="1" vertex="1">
                    <mxGeometry x="50" y="1920" width="180" height="150" as="geometry"/>
                </mxCell>
                <mxCell id="657" value="" style="shape=tableRow;horizontal=0;startSize=0;swimlaneHead=0;swimlaneBody=0;fillColor=none;collapsible=0;dropTarget=0;points=[[0,0.5],[1,0.5]];portConstraint=eastwest;top=0;left=0;right=0;bottom=1;" parent="656" vertex="1">
                    <mxGeometry y="30" width="180" height="30" as="geometry"/>
                </mxCell>
                <mxCell id="658" value="PK" style="shape=partialRectangle;connectable=0;fillColor=none;top=0;left=0;bottom=0;right=0;fontStyle=1;overflow=hidden;whiteSpace=wrap;html=1;" parent="657" vertex="1">
                    <mxGeometry width="30" height="30" as="geometry">
                        <mxRectangle width="30" height="30" as="alternateBounds"/>
                    </mxGeometry>
                </mxCell>
                <mxCell id="659" value="Vorgang_ID" style="shape=partialRectangle;connectable=0;fillColor=none;top=0;left=0;bottom=0;right=0;align=left;spacingLeft=6;fontStyle=5;overflow=hidden;whiteSpace=wrap;html=1;" parent="657" vertex="1">
                    <mxGeometry x="30" width="150" height="30" as="geometry">
                        <mxRectangle width="150" height="30" as="alternateBounds"/>
                    </mxGeometry>
                </mxCell>
                <mxCell id="660" value="" style="shape=tableRow;horizontal=0;startSize=0;swimlaneHead=0;swimlaneBody=0;fillColor=none;collapsible=0;dropTarget=0;points=[[0,0.5],[1,0.5]];portConstraint=eastwest;top=0;left=0;right=0;bottom=0;" parent="656" vertex="1">
                    <mxGeometry y="60" width="180" height="30" as="geometry"/>
                </mxCell>
                <mxCell id="661" value="FK" style="shape=partialRectangle;connectable=0;fillColor=none;top=0;left=0;bottom=0;right=0;editable=1;overflow=hidden;whiteSpace=wrap;html=1;" parent="660" vertex="1">
                    <mxGeometry width="30" height="30" as="geometry">
                        <mxRectangle width="30" height="30" as="alternateBounds"/>
                    </mxGeometry>
                </mxCell>
                <mxCell id="662" value="Delinguent_ID" style="shape=partialRectangle;connectable=0;fillColor=none;top=0;left=0;bottom=0;right=0;align=left;spacingLeft=6;overflow=hidden;whiteSpace=wrap;html=1;" parent="660" vertex="1">
                    <mxGeometry x="30" width="150" height="30" as="geometry">
                        <mxRectangle width="150" height="30" as="alternateBounds"/>
                    </mxGeometry>
                </mxCell>
                <mxCell id="666" value="" style="shape=tableRow;horizontal=0;startSize=0;swimlaneHead=0;swimlaneBody=0;fillColor=none;collapsible=0;dropTarget=0;points=[[0,0.5],[1,0.5]];portConstraint=eastwest;top=0;left=0;right=0;bottom=0;" parent="656" vertex="1">
                    <mxGeometry y="90" width="180" height="30" as="geometry"/>
                </mxCell>
                <mxCell id="667" value="FK" style="shape=partialRectangle;connectable=0;fillColor=none;top=0;left=0;bottom=0;right=0;editable=1;overflow=hidden;whiteSpace=wrap;html=1;" parent="666" vertex="1">
                    <mxGeometry width="30" height="30" as="geometry">
                        <mxRectangle width="30" height="30" as="alternateBounds"/>
                    </mxGeometry>
                </mxCell>
                <mxCell id="668" value="Bearbeiter_ID" style="shape=partialRectangle;connectable=0;fillColor=none;top=0;left=0;bottom=0;right=0;align=left;spacingLeft=6;overflow=hidden;whiteSpace=wrap;html=1;" parent="666" vertex="1">
                    <mxGeometry x="30" width="150" height="30" as="geometry">
                        <mxRectangle width="150" height="30" as="alternateBounds"/>
                    </mxGeometry>
                </mxCell>
                <mxCell id="663" value="" style="shape=tableRow;horizontal=0;startSize=0;swimlaneHead=0;swimlaneBody=0;fillColor=none;collapsible=0;dropTarget=0;points=[[0,0.5],[1,0.5]];portConstraint=eastwest;top=0;left=0;right=0;bottom=0;" parent="656" vertex="1">
                    <mxGeometry y="120" width="180" height="30" as="geometry"/>
                </mxCell>
                <mxCell id="664" value="" style="shape=partialRectangle;connectable=0;fillColor=none;top=0;left=0;bottom=0;right=0;editable=1;overflow=hidden;whiteSpace=wrap;html=1;" parent="663" vertex="1">
                    <mxGeometry width="30" height="30" as="geometry">
                        <mxRectangle width="30" height="30" as="alternateBounds"/>
                    </mxGeometry>
                </mxCell>
                <mxCell id="665" value="Datum" style="shape=partialRectangle;connectable=0;fillColor=none;top=0;left=0;bottom=0;right=0;align=left;spacingLeft=6;overflow=hidden;whiteSpace=wrap;html=1;" parent="663" vertex="1">
                    <mxGeometry x="30" width="150" height="30" as="geometry">
                        <mxRectangle width="150" height="30" as="alternateBounds"/>
                    </mxGeometry>
                </mxCell>
                <mxCell id="684" value="3. NF Datenbankschema TODO" style="text;html=1;align=left;verticalAlign=middle;whiteSpace=wrap;rounded=0;" parent="1" vertex="1">
                    <mxGeometry x="40" y="1810" width="270" height="30" as="geometry"/>
                </mxCell>
                <mxCell id="685" value="Delinquent" style="shape=table;startSize=30;container=1;collapsible=1;childLayout=tableLayout;fixedRows=1;rowLines=0;fontStyle=1;align=center;resizeLast=1;html=1;" parent="1" vertex="1">
                    <mxGeometry x="310" y="1920" width="180" height="150" as="geometry"/>
                </mxCell>
                <mxCell id="686" value="" style="shape=tableRow;horizontal=0;startSize=0;swimlaneHead=0;swimlaneBody=0;fillColor=none;collapsible=0;dropTarget=0;points=[[0,0.5],[1,0.5]];portConstraint=eastwest;top=0;left=0;right=0;bottom=1;" parent="685" vertex="1">
                    <mxGeometry y="30" width="180" height="30" as="geometry"/>
                </mxCell>
                <mxCell id="687" value="PK" style="shape=partialRectangle;connectable=0;fillColor=none;top=0;left=0;bottom=0;right=0;fontStyle=1;overflow=hidden;whiteSpace=wrap;html=1;" parent="686" vertex="1">
                    <mxGeometry width="30" height="30" as="geometry">
                        <mxRectangle width="30" height="30" as="alternateBounds"/>
                    </mxGeometry>
                </mxCell>
                <mxCell id="688" value="&lt;u style=&quot;color: rgb(63, 63, 63); scrollbar-color: rgb(226, 226, 226) rgb(251, 251, 251);&quot;&gt;Delinquent_ID&lt;/u&gt;" style="shape=partialRectangle;connectable=0;fillColor=none;top=0;left=0;bottom=0;right=0;align=left;spacingLeft=6;fontStyle=5;overflow=hidden;whiteSpace=wrap;html=1;" parent="686" vertex="1">
                    <mxGeometry x="30" width="150" height="30" as="geometry">
                        <mxRectangle width="150" height="30" as="alternateBounds"/>
                    </mxGeometry>
                </mxCell>
                <mxCell id="689" value="" style="shape=tableRow;horizontal=0;startSize=0;swimlaneHead=0;swimlaneBody=0;fillColor=none;collapsible=0;dropTarget=0;points=[[0,0.5],[1,0.5]];portConstraint=eastwest;top=0;left=0;right=0;bottom=0;" parent="685" vertex="1">
                    <mxGeometry y="60" width="180" height="30" as="geometry"/>
                </mxCell>
                <mxCell id="690" value="FK" style="shape=partialRectangle;connectable=0;fillColor=none;top=0;left=0;bottom=0;right=0;editable=1;overflow=hidden;whiteSpace=wrap;html=1;" parent="689" vertex="1">
                    <mxGeometry width="30" height="30" as="geometry">
                        <mxRectangle width="30" height="30" as="alternateBounds"/>
                    </mxGeometry>
                </mxCell>
                <mxCell id="691" value="&lt;span style=&quot;color: rgb(0, 0, 0);&quot;&gt;Anrede_ID&lt;/span&gt;" style="shape=partialRectangle;connectable=0;fillColor=none;top=0;left=0;bottom=0;right=0;align=left;spacingLeft=6;overflow=hidden;whiteSpace=wrap;html=1;" parent="689" vertex="1">
                    <mxGeometry x="30" width="150" height="30" as="geometry">
                        <mxRectangle width="150" height="30" as="alternateBounds"/>
                    </mxGeometry>
                </mxCell>
                <mxCell id="692" value="" style="shape=tableRow;horizontal=0;startSize=0;swimlaneHead=0;swimlaneBody=0;fillColor=none;collapsible=0;dropTarget=0;points=[[0,0.5],[1,0.5]];portConstraint=eastwest;top=0;left=0;right=0;bottom=0;" parent="685" vertex="1">
                    <mxGeometry y="90" width="180" height="30" as="geometry"/>
                </mxCell>
                <mxCell id="693" value="" style="shape=partialRectangle;connectable=0;fillColor=none;top=0;left=0;bottom=0;right=0;editable=1;overflow=hidden;whiteSpace=wrap;html=1;" parent="692" vertex="1">
                    <mxGeometry width="30" height="30" as="geometry">
                        <mxRectangle width="30" height="30" as="alternateBounds"/>
                    </mxGeometry>
                </mxCell>
                <mxCell id="694" value="&lt;span style=&quot;color: rgb(0, 0, 0);&quot;&gt;Delinquent&lt;/span&gt;" style="shape=partialRectangle;connectable=0;fillColor=none;top=0;left=0;bottom=0;right=0;align=left;spacingLeft=6;overflow=hidden;whiteSpace=wrap;html=1;" parent="692" vertex="1">
                    <mxGeometry x="30" width="150" height="30" as="geometry">
                        <mxRectangle width="150" height="30" as="alternateBounds"/>
                    </mxGeometry>
                </mxCell>
                <mxCell id="695" value="" style="shape=tableRow;horizontal=0;startSize=0;swimlaneHead=0;swimlaneBody=0;fillColor=none;collapsible=0;dropTarget=0;points=[[0,0.5],[1,0.5]];portConstraint=eastwest;top=0;left=0;right=0;bottom=0;" parent="685" vertex="1">
                    <mxGeometry y="120" width="180" height="30" as="geometry"/>
                </mxCell>
                <mxCell id="696" value="" style="shape=partialRectangle;connectable=0;fillColor=none;top=0;left=0;bottom=0;right=0;editable=1;overflow=hidden;whiteSpace=wrap;html=1;" parent="695" vertex="1">
                    <mxGeometry width="30" height="30" as="geometry">
                        <mxRectangle width="30" height="30" as="alternateBounds"/>
                    </mxGeometry>
                </mxCell>
                <mxCell id="697" value="&lt;span style=&quot;color: rgb(0, 0, 0);&quot;&gt;Geburtsdatum&lt;/span&gt;" style="shape=partialRectangle;connectable=0;fillColor=none;top=0;left=0;bottom=0;right=0;align=left;spacingLeft=6;overflow=hidden;whiteSpace=wrap;html=1;" parent="695" vertex="1">
                    <mxGeometry x="30" width="150" height="30" as="geometry">
                        <mxRectangle width="150" height="30" as="alternateBounds"/>
                    </mxGeometry>
                </mxCell>
                <mxCell id="698" value="Anrede" style="shape=table;startSize=30;container=1;collapsible=1;childLayout=tableLayout;fixedRows=1;rowLines=0;fontStyle=1;align=center;resizeLast=1;html=1;" parent="1" vertex="1">
                    <mxGeometry x="560" y="1920" width="180" height="90" as="geometry"/>
                </mxCell>
                <mxCell id="699" value="" style="shape=tableRow;horizontal=0;startSize=0;swimlaneHead=0;swimlaneBody=0;fillColor=none;collapsible=0;dropTarget=0;points=[[0,0.5],[1,0.5]];portConstraint=eastwest;top=0;left=0;right=0;bottom=1;" parent="698" vertex="1">
                    <mxGeometry y="30" width="180" height="30" as="geometry"/>
                </mxCell>
                <mxCell id="700" value="PK" style="shape=partialRectangle;connectable=0;fillColor=none;top=0;left=0;bottom=0;right=0;fontStyle=1;overflow=hidden;whiteSpace=wrap;html=1;" parent="699" vertex="1">
                    <mxGeometry width="30" height="30" as="geometry">
                        <mxRectangle width="30" height="30" as="alternateBounds"/>
                    </mxGeometry>
                </mxCell>
                <mxCell id="701" value="Anrede_ID" style="shape=partialRectangle;connectable=0;fillColor=none;top=0;left=0;bottom=0;right=0;align=left;spacingLeft=6;fontStyle=5;overflow=hidden;whiteSpace=wrap;html=1;" parent="699" vertex="1">
                    <mxGeometry x="30" width="150" height="30" as="geometry">
                        <mxRectangle width="150" height="30" as="alternateBounds"/>
                    </mxGeometry>
                </mxCell>
                <mxCell id="702" value="" style="shape=tableRow;horizontal=0;startSize=0;swimlaneHead=0;swimlaneBody=0;fillColor=none;collapsible=0;dropTarget=0;points=[[0,0.5],[1,0.5]];portConstraint=eastwest;top=0;left=0;right=0;bottom=0;" parent="698" vertex="1">
                    <mxGeometry y="60" width="180" height="30" as="geometry"/>
                </mxCell>
                <mxCell id="703" value="" style="shape=partialRectangle;connectable=0;fillColor=none;top=0;left=0;bottom=0;right=0;editable=1;overflow=hidden;whiteSpace=wrap;html=1;" parent="702" vertex="1">
                    <mxGeometry width="30" height="30" as="geometry">
                        <mxRectangle width="30" height="30" as="alternateBounds"/>
                    </mxGeometry>
                </mxCell>
                <mxCell id="704" value="Anrede" style="shape=partialRectangle;connectable=0;fillColor=none;top=0;left=0;bottom=0;right=0;align=left;spacingLeft=6;overflow=hidden;whiteSpace=wrap;html=1;" parent="702" vertex="1">
                    <mxGeometry x="30" width="150" height="30" as="geometry">
                        <mxRectangle width="150" height="30" as="alternateBounds"/>
                    </mxGeometry>
                </mxCell>
                <mxCell id="711" value="Bearbeiter" style="shape=table;startSize=30;container=1;collapsible=1;childLayout=tableLayout;fixedRows=1;rowLines=0;fontStyle=1;align=center;resizeLast=1;html=1;" parent="1" vertex="1">
                    <mxGeometry x="560" y="2040" width="180" height="120" as="geometry"/>
                </mxCell>
                <mxCell id="712" value="" style="shape=tableRow;horizontal=0;startSize=0;swimlaneHead=0;swimlaneBody=0;fillColor=none;collapsible=0;dropTarget=0;points=[[0,0.5],[1,0.5]];portConstraint=eastwest;top=0;left=0;right=0;bottom=1;" parent="711" vertex="1">
                    <mxGeometry y="30" width="180" height="30" as="geometry"/>
                </mxCell>
                <mxCell id="713" value="PK" style="shape=partialRectangle;connectable=0;fillColor=none;top=0;left=0;bottom=0;right=0;fontStyle=1;overflow=hidden;whiteSpace=wrap;html=1;" parent="712" vertex="1">
                    <mxGeometry width="30" height="30" as="geometry">
                        <mxRectangle width="30" height="30" as="alternateBounds"/>
                    </mxGeometry>
                </mxCell>
                <mxCell id="714" value="&lt;u style=&quot;color: rgb(63, 63, 63); scrollbar-color: rgb(226, 226, 226) rgb(251, 251, 251); font-weight: 400;&quot;&gt;Bearbeiter_ID&lt;/u&gt;" style="shape=partialRectangle;connectable=0;fillColor=none;top=0;left=0;bottom=0;right=0;align=left;spacingLeft=6;fontStyle=5;overflow=hidden;whiteSpace=wrap;html=1;" parent="712" vertex="1">
                    <mxGeometry x="30" width="150" height="30" as="geometry">
                        <mxRectangle width="150" height="30" as="alternateBounds"/>
                    </mxGeometry>
                </mxCell>
                <mxCell id="715" value="" style="shape=tableRow;horizontal=0;startSize=0;swimlaneHead=0;swimlaneBody=0;fillColor=none;collapsible=0;dropTarget=0;points=[[0,0.5],[1,0.5]];portConstraint=eastwest;top=0;left=0;right=0;bottom=0;" parent="711" vertex="1">
                    <mxGeometry y="60" width="180" height="30" as="geometry"/>
                </mxCell>
                <mxCell id="716" value="" style="shape=partialRectangle;connectable=0;fillColor=none;top=0;left=0;bottom=0;right=0;editable=1;overflow=hidden;whiteSpace=wrap;html=1;" parent="715" vertex="1">
                    <mxGeometry width="30" height="30" as="geometry">
                        <mxRectangle width="30" height="30" as="alternateBounds"/>
                    </mxGeometry>
                </mxCell>
                <mxCell id="717" value="&lt;span style=&quot;color: rgb(0, 0, 0);&quot;&gt;Name&lt;/span&gt;" style="shape=partialRectangle;connectable=0;fillColor=none;top=0;left=0;bottom=0;right=0;align=left;spacingLeft=6;overflow=hidden;whiteSpace=wrap;html=1;" parent="715" vertex="1">
                    <mxGeometry x="30" width="150" height="30" as="geometry">
                        <mxRectangle width="150" height="30" as="alternateBounds"/>
                    </mxGeometry>
                </mxCell>
                <mxCell id="718" value="" style="shape=tableRow;horizontal=0;startSize=0;swimlaneHead=0;swimlaneBody=0;fillColor=none;collapsible=0;dropTarget=0;points=[[0,0.5],[1,0.5]];portConstraint=eastwest;top=0;left=0;right=0;bottom=0;" parent="711" vertex="1">
                    <mxGeometry y="90" width="180" height="30" as="geometry"/>
                </mxCell>
                <mxCell id="719" value="" style="shape=partialRectangle;connectable=0;fillColor=none;top=0;left=0;bottom=0;right=0;editable=1;overflow=hidden;whiteSpace=wrap;html=1;" parent="718" vertex="1">
                    <mxGeometry width="30" height="30" as="geometry">
                        <mxRectangle width="30" height="30" as="alternateBounds"/>
                    </mxGeometry>
                </mxCell>
                <mxCell id="720" value="&lt;span style=&quot;color: rgb(0, 0, 0);&quot;&gt;Vorname&lt;/span&gt;" style="shape=partialRectangle;connectable=0;fillColor=none;top=0;left=0;bottom=0;right=0;align=left;spacingLeft=6;overflow=hidden;whiteSpace=wrap;html=1;" parent="718" vertex="1">
                    <mxGeometry x="30" width="150" height="30" as="geometry">
                        <mxRectangle width="150" height="30" as="alternateBounds"/>
                    </mxGeometry>
                </mxCell>
                <mxCell id="724" value="Dokument" style="shape=table;startSize=30;container=1;collapsible=1;childLayout=tableLayout;fixedRows=1;rowLines=0;fontStyle=1;align=center;resizeLast=1;html=1;" parent="1" vertex="1">
                    <mxGeometry x="310" y="2240" width="180" height="90" as="geometry"/>
                </mxCell>
                <mxCell id="725" value="" style="shape=tableRow;horizontal=0;startSize=0;swimlaneHead=0;swimlaneBody=0;fillColor=none;collapsible=0;dropTarget=0;points=[[0,0.5],[1,0.5]];portConstraint=eastwest;top=0;left=0;right=0;bottom=1;" parent="724" vertex="1">
                    <mxGeometry y="30" width="180" height="30" as="geometry"/>
                </mxCell>
                <mxCell id="726" value="PK" style="shape=partialRectangle;connectable=0;fillColor=none;top=0;left=0;bottom=0;right=0;fontStyle=1;overflow=hidden;whiteSpace=wrap;html=1;" parent="725" vertex="1">
                    <mxGeometry width="30" height="30" as="geometry">
                        <mxRectangle width="30" height="30" as="alternateBounds"/>
                    </mxGeometry>
                </mxCell>
                <mxCell id="727" value="&lt;u style=&quot;color: rgb(63, 63, 63); scrollbar-color: rgb(226, 226, 226) rgb(251, 251, 251); font-weight: 400;&quot;&gt;Dokumnet_ID&lt;/u&gt;" style="shape=partialRectangle;connectable=0;fillColor=none;top=0;left=0;bottom=0;right=0;align=left;spacingLeft=6;fontStyle=5;overflow=hidden;whiteSpace=wrap;html=1;" parent="725" vertex="1">
                    <mxGeometry x="30" width="150" height="30" as="geometry">
                        <mxRectangle width="150" height="30" as="alternateBounds"/>
                    </mxGeometry>
                </mxCell>
                <mxCell id="728" value="" style="shape=tableRow;horizontal=0;startSize=0;swimlaneHead=0;swimlaneBody=0;fillColor=none;collapsible=0;dropTarget=0;points=[[0,0.5],[1,0.5]];portConstraint=eastwest;top=0;left=0;right=0;bottom=0;" parent="724" vertex="1">
                    <mxGeometry y="60" width="180" height="30" as="geometry"/>
                </mxCell>
                <mxCell id="729" value="" style="shape=partialRectangle;connectable=0;fillColor=none;top=0;left=0;bottom=0;right=0;editable=1;overflow=hidden;whiteSpace=wrap;html=1;" parent="728" vertex="1">
                    <mxGeometry width="30" height="30" as="geometry">
                        <mxRectangle width="30" height="30" as="alternateBounds"/>
                    </mxGeometry>
                </mxCell>
                <mxCell id="730" value="&lt;span style=&quot;color: rgb(0, 0, 0);&quot;&gt;Dokument&lt;/span&gt;" style="shape=partialRectangle;connectable=0;fillColor=none;top=0;left=0;bottom=0;right=0;align=left;spacingLeft=6;overflow=hidden;whiteSpace=wrap;html=1;" parent="728" vertex="1">
                    <mxGeometry x="30" width="150" height="30" as="geometry">
                        <mxRectangle width="150" height="30" as="alternateBounds"/>
                    </mxGeometry>
                </mxCell>
                <mxCell id="737" value="Delikt" style="shape=table;startSize=30;container=1;collapsible=1;childLayout=tableLayout;fixedRows=1;rowLines=0;fontStyle=1;align=center;resizeLast=1;html=1;" parent="1" vertex="1">
                    <mxGeometry x="50" y="2230" width="180" height="90" as="geometry"/>
                </mxCell>
                <mxCell id="738" value="" style="shape=tableRow;horizontal=0;startSize=0;swimlaneHead=0;swimlaneBody=0;fillColor=none;collapsible=0;dropTarget=0;points=[[0,0.5],[1,0.5]];portConstraint=eastwest;top=0;left=0;right=0;bottom=1;" parent="737" vertex="1">
                    <mxGeometry y="30" width="180" height="30" as="geometry"/>
                </mxCell>
                <mxCell id="739" value="PK" style="shape=partialRectangle;connectable=0;fillColor=none;top=0;left=0;bottom=0;right=0;fontStyle=1;overflow=hidden;whiteSpace=wrap;html=1;" parent="738" vertex="1">
                    <mxGeometry width="30" height="30" as="geometry">
                        <mxRectangle width="30" height="30" as="alternateBounds"/>
                    </mxGeometry>
                </mxCell>
                <mxCell id="740" value="&lt;u style=&quot;color: rgb(63, 63, 63); scrollbar-color: rgb(226, 226, 226) rgb(251, 251, 251); font-weight: 400;&quot;&gt;Delikt_ID&lt;/u&gt;" style="shape=partialRectangle;connectable=0;fillColor=none;top=0;left=0;bottom=0;right=0;align=left;spacingLeft=6;fontStyle=5;overflow=hidden;whiteSpace=wrap;html=1;" parent="738" vertex="1">
                    <mxGeometry x="30" width="150" height="30" as="geometry">
                        <mxRectangle width="150" height="30" as="alternateBounds"/>
                    </mxGeometry>
                </mxCell>
                <mxCell id="741" value="" style="shape=tableRow;horizontal=0;startSize=0;swimlaneHead=0;swimlaneBody=0;fillColor=none;collapsible=0;dropTarget=0;points=[[0,0.5],[1,0.5]];portConstraint=eastwest;top=0;left=0;right=0;bottom=0;" parent="737" vertex="1">
                    <mxGeometry y="60" width="180" height="30" as="geometry"/>
                </mxCell>
                <mxCell id="742" value="" style="shape=partialRectangle;connectable=0;fillColor=none;top=0;left=0;bottom=0;right=0;editable=1;overflow=hidden;whiteSpace=wrap;html=1;" parent="741" vertex="1">
                    <mxGeometry width="30" height="30" as="geometry">
                        <mxRectangle width="30" height="30" as="alternateBounds"/>
                    </mxGeometry>
                </mxCell>
                <mxCell id="743" value="&lt;span style=&quot;color: rgb(0, 0, 0);&quot;&gt;Delikt&lt;/span&gt;" style="shape=partialRectangle;connectable=0;fillColor=none;top=0;left=0;bottom=0;right=0;align=left;spacingLeft=6;overflow=hidden;whiteSpace=wrap;html=1;" parent="741" vertex="1">
                    <mxGeometry x="30" width="150" height="30" as="geometry">
                        <mxRectangle width="150" height="30" as="alternateBounds"/>
                    </mxGeometry>
                </mxCell>
                <mxCell id="750" value="Vorgang_Dokument" style="shape=table;startSize=30;container=1;collapsible=1;childLayout=tableLayout;fixedRows=1;rowLines=0;fontStyle=1;align=center;resizeLast=1;html=1;" parent="1" vertex="1">
                    <mxGeometry x="310" y="2120" width="180" height="90" as="geometry"/>
                </mxCell>
                <mxCell id="751" value="" style="shape=tableRow;horizontal=0;startSize=0;swimlaneHead=0;swimlaneBody=0;fillColor=none;collapsible=0;dropTarget=0;points=[[0,0.5],[1,0.5]];portConstraint=eastwest;top=0;left=0;right=0;bottom=1;" parent="750" vertex="1">
                    <mxGeometry y="30" width="180" height="30" as="geometry"/>
                </mxCell>
                <mxCell id="752" value="PK, FK" style="shape=partialRectangle;connectable=0;fillColor=none;top=0;left=0;bottom=0;right=0;fontStyle=1;overflow=hidden;whiteSpace=wrap;html=1;" parent="751" vertex="1">
                    <mxGeometry width="30" height="30" as="geometry">
                        <mxRectangle width="30" height="30" as="alternateBounds"/>
                    </mxGeometry>
                </mxCell>
                <mxCell id="753" value="Vorgang_ID" style="shape=partialRectangle;connectable=0;fillColor=none;top=0;left=0;bottom=0;right=0;align=left;spacingLeft=6;fontStyle=5;overflow=hidden;whiteSpace=wrap;html=1;" parent="751" vertex="1">
                    <mxGeometry x="30" width="150" height="30" as="geometry">
                        <mxRectangle width="150" height="30" as="alternateBounds"/>
                    </mxGeometry>
                </mxCell>
                <mxCell id="754" value="" style="shape=tableRow;horizontal=0;startSize=0;swimlaneHead=0;swimlaneBody=0;fillColor=none;collapsible=0;dropTarget=0;points=[[0,0.5],[1,0.5]];portConstraint=eastwest;top=0;left=0;right=0;bottom=0;" parent="750" vertex="1">
                    <mxGeometry y="60" width="180" height="30" as="geometry"/>
                </mxCell>
                <mxCell id="755" value="PK, FK" style="shape=partialRectangle;connectable=0;fillColor=none;top=0;left=0;bottom=0;right=0;editable=1;overflow=hidden;whiteSpace=wrap;html=1;" parent="754" vertex="1">
                    <mxGeometry width="30" height="30" as="geometry">
                        <mxRectangle width="30" height="30" as="alternateBounds"/>
                    </mxGeometry>
                </mxCell>
                <mxCell id="756" value="&lt;u style=&quot;color: rgb(63, 63, 63); scrollbar-color: rgb(226, 226, 226) rgb(251, 251, 251);&quot;&gt;Dokumnet_ID&lt;/u&gt;" style="shape=partialRectangle;connectable=0;fillColor=none;top=0;left=0;bottom=0;right=0;align=left;spacingLeft=6;overflow=hidden;whiteSpace=wrap;html=1;" parent="754" vertex="1">
                    <mxGeometry x="30" width="150" height="30" as="geometry">
                        <mxRectangle width="150" height="30" as="alternateBounds"/>
                    </mxGeometry>
                </mxCell>
                <mxCell id="763" value="Vorgang_Delikt" style="shape=table;startSize=30;container=1;collapsible=1;childLayout=tableLayout;fixedRows=1;rowLines=0;fontStyle=1;align=center;resizeLast=1;html=1;" parent="1" vertex="1">
                    <mxGeometry x="50" y="2100" width="180" height="90" as="geometry"/>
                </mxCell>
                <mxCell id="764" value="" style="shape=tableRow;horizontal=0;startSize=0;swimlaneHead=0;swimlaneBody=0;fillColor=none;collapsible=0;dropTarget=0;points=[[0,0.5],[1,0.5]];portConstraint=eastwest;top=0;left=0;right=0;bottom=1;" parent="763" vertex="1">
                    <mxGeometry y="30" width="180" height="30" as="geometry"/>
                </mxCell>
                <mxCell id="765" value="PK, FK" style="shape=partialRectangle;connectable=0;fillColor=none;top=0;left=0;bottom=0;right=0;fontStyle=1;overflow=hidden;whiteSpace=wrap;html=1;" parent="764" vertex="1">
                    <mxGeometry width="30" height="30" as="geometry">
                        <mxRectangle width="30" height="30" as="alternateBounds"/>
                    </mxGeometry>
                </mxCell>
                <mxCell id="766" value="Vorgang_ID" style="shape=partialRectangle;connectable=0;fillColor=none;top=0;left=0;bottom=0;right=0;align=left;spacingLeft=6;fontStyle=5;overflow=hidden;whiteSpace=wrap;html=1;" parent="764" vertex="1">
                    <mxGeometry x="30" width="150" height="30" as="geometry">
                        <mxRectangle width="150" height="30" as="alternateBounds"/>
                    </mxGeometry>
                </mxCell>
                <mxCell id="767" value="" style="shape=tableRow;horizontal=0;startSize=0;swimlaneHead=0;swimlaneBody=0;fillColor=none;collapsible=0;dropTarget=0;points=[[0,0.5],[1,0.5]];portConstraint=eastwest;top=0;left=0;right=0;bottom=0;" parent="763" vertex="1">
                    <mxGeometry y="60" width="180" height="30" as="geometry"/>
                </mxCell>
                <mxCell id="768" value="PK, FK" style="shape=partialRectangle;connectable=0;fillColor=none;top=0;left=0;bottom=0;right=0;editable=1;overflow=hidden;whiteSpace=wrap;html=1;fontStyle=1" parent="767" vertex="1">
                    <mxGeometry width="30" height="30" as="geometry">
                        <mxRectangle width="30" height="30" as="alternateBounds"/>
                    </mxGeometry>
                </mxCell>
                <mxCell id="769" value="&lt;u style=&quot;scrollbar-color: rgb(226, 226, 226) rgb(251, 251, 251); color: rgb(63, 63, 63);&quot;&gt;Delikt_ID&lt;/u&gt;" style="shape=partialRectangle;connectable=0;fillColor=none;top=0;left=0;bottom=0;right=0;align=left;spacingLeft=6;overflow=hidden;whiteSpace=wrap;html=1;fontStyle=1" parent="767" vertex="1">
                    <mxGeometry x="30" width="150" height="30" as="geometry">
                        <mxRectangle width="150" height="30" as="alternateBounds"/>
                    </mxGeometry>
                </mxCell>
                <mxCell id="776" style="edgeStyle=none;html=1;exitX=0;exitY=0.5;exitDx=0;exitDy=0;entryX=0;entryY=0.5;entryDx=0;entryDy=0;" parent="1" source="764" target="657" edge="1">
                    <mxGeometry relative="1" as="geometry">
                        <Array as="points">
                            <mxPoint x="10" y="2050"/>
                        </Array>
                    </mxGeometry>
                </mxCell>
                <mxCell id="777" style="edgeStyle=none;html=1;exitX=0;exitY=0.5;exitDx=0;exitDy=0;entryX=0;entryY=0.5;entryDx=0;entryDy=0;" parent="1" source="738" target="767" edge="1">
                    <mxGeometry relative="1" as="geometry">
                        <Array as="points">
                            <mxPoint x="30" y="2220"/>
                        </Array>
                    </mxGeometry>
                </mxCell>
                <mxCell id="778" style="edgeStyle=none;html=1;exitX=0;exitY=0.5;exitDx=0;exitDy=0;entryX=1;entryY=0.5;entryDx=0;entryDy=0;" parent="1" source="686" target="660" edge="1">
                    <mxGeometry relative="1" as="geometry"/>
                </mxCell>
                <mxCell id="779" style="edgeStyle=none;html=1;exitX=1;exitY=0.5;exitDx=0;exitDy=0;entryX=0;entryY=0.5;entryDx=0;entryDy=0;" parent="1" source="657" target="751" edge="1">
                    <mxGeometry relative="1" as="geometry">
                        <Array as="points">
                            <mxPoint x="260" y="1965"/>
                            <mxPoint x="270" y="2165"/>
                        </Array>
                    </mxGeometry>
                </mxCell>
                <mxCell id="780" style="edgeStyle=none;html=1;entryX=0;entryY=0.5;entryDx=0;entryDy=0;exitX=0;exitY=0.5;exitDx=0;exitDy=0;" parent="1" source="725" target="754" edge="1">
                    <mxGeometry relative="1" as="geometry">
                        <Array as="points">
                            <mxPoint x="290" y="2280"/>
                            <mxPoint x="280" y="2195"/>
                        </Array>
                    </mxGeometry>
                </mxCell>
                <mxCell id="781" style="edgeStyle=none;html=1;exitX=0;exitY=0.5;exitDx=0;exitDy=0;entryX=1;entryY=0.5;entryDx=0;entryDy=0;" parent="1" source="699" target="689" edge="1">
                    <mxGeometry relative="1" as="geometry"/>
                </mxCell>
                <mxCell id="782" style="edgeStyle=none;html=1;exitX=0;exitY=0.5;exitDx=0;exitDy=0;entryX=1;entryY=0.5;entryDx=0;entryDy=0;" parent="1" source="712" target="666" edge="1">
                    <mxGeometry relative="1" as="geometry">
                        <Array as="points">
                            <mxPoint x="510" y="2100"/>
                            <mxPoint x="250" y="2085"/>
                        </Array>
                    </mxGeometry>
                </mxCell>
                <mxCell id="783" value="1" style="text;html=1;align=center;verticalAlign=middle;whiteSpace=wrap;rounded=0;" parent="1" vertex="1">
                    <mxGeometry x="40" y="1780" width="60" height="30" as="geometry"/>
                </mxCell>
                <mxCell id="784" value="1" style="text;html=1;align=center;verticalAlign=middle;whiteSpace=wrap;rounded=0;" parent="1" vertex="1">
                    <mxGeometry y="1960" width="60" height="30" as="geometry"/>
                </mxCell>
                <mxCell id="785" value="n" style="text;html=1;align=center;verticalAlign=middle;whiteSpace=wrap;rounded=0;" parent="1" vertex="1">
                    <mxGeometry x="95" y="1780" width="60" height="30" as="geometry"/>
                </mxCell>
                <mxCell id="786" value="n" style="text;html=1;align=center;verticalAlign=middle;whiteSpace=wrap;rounded=0;" parent="1" vertex="1">
                    <mxGeometry x="-10" y="2110" width="60" height="30" as="geometry"/>
                </mxCell>
                <mxCell id="787" value="n" style="text;html=1;align=center;verticalAlign=middle;whiteSpace=wrap;rounded=0;" parent="1" vertex="1">
                    <mxGeometry y="2170" width="60" height="30" as="geometry"/>
                </mxCell>
                <mxCell id="788" value="1" style="text;html=1;align=center;verticalAlign=middle;whiteSpace=wrap;rounded=0;" parent="1" vertex="1">
                    <mxGeometry y="2250" width="60" height="30" as="geometry"/>
                </mxCell>
                <mxCell id="789" value="1" style="text;html=1;align=center;verticalAlign=middle;whiteSpace=wrap;rounded=0;" parent="1" vertex="1">
                    <mxGeometry x="270" y="1940" width="60" height="30" as="geometry"/>
                </mxCell>
                <mxCell id="790" value="1" style="text;html=1;align=center;verticalAlign=middle;whiteSpace=wrap;rounded=0;" parent="1" vertex="1">
                    <mxGeometry x="210" y="1990" width="60" height="30" as="geometry"/>
                </mxCell>
                <mxCell id="791" value="1" style="text;html=1;align=center;verticalAlign=middle;whiteSpace=wrap;rounded=0;" parent="1" vertex="1">
                    <mxGeometry x="210" y="2030" width="60" height="30" as="geometry"/>
                </mxCell>
                <mxCell id="792" value="1" style="text;html=1;align=center;verticalAlign=middle;whiteSpace=wrap;rounded=0;" parent="1" vertex="1">
                    <mxGeometry x="510" y="2060" width="60" height="30" as="geometry"/>
                </mxCell>
                <mxCell id="793" value="1" style="text;html=1;align=center;verticalAlign=middle;whiteSpace=wrap;rounded=0;" parent="1" vertex="1">
                    <mxGeometry x="470" y="1960" width="60" height="30" as="geometry"/>
                </mxCell>
                <mxCell id="794" value="n" style="text;html=1;align=center;verticalAlign=middle;whiteSpace=wrap;rounded=0;" parent="1" vertex="1">
                    <mxGeometry x="520" y="1940" width="60" height="30" as="geometry"/>
                </mxCell>
                <mxCell id="795" value="n" style="text;html=1;align=center;verticalAlign=middle;whiteSpace=wrap;rounded=0;" parent="1" vertex="1">
                    <mxGeometry x="260" y="2140" width="60" height="30" as="geometry"/>
                </mxCell>
                <mxCell id="796" value="1" style="text;html=1;align=center;verticalAlign=middle;whiteSpace=wrap;rounded=0;" parent="1" vertex="1">
                    <mxGeometry x="210" y="1940" width="60" height="30" as="geometry"/>
                </mxCell>
                <mxCell id="797" value="n" style="text;html=1;align=center;verticalAlign=middle;whiteSpace=wrap;rounded=0;" parent="1" vertex="1">
                    <mxGeometry x="250" y="2170" width="60" height="30" as="geometry"/>
                </mxCell>
                <mxCell id="798" value="1" style="text;html=1;align=center;verticalAlign=middle;whiteSpace=wrap;rounded=0;" parent="1" vertex="1">
                    <mxGeometry x="260" y="2280" width="60" height="30" as="geometry"/>
                </mxCell>
            </root>
        </mxGraphModel>
    </diagram>
</mxfile>